<?xml version="1.0" encoding="utf-8"?>
<!-- Generator: Adobe Illustrator 21.1.0, SVG Export Plug-In . SVG Version: 6.00 Build 0)  -->
<svg version="1.1" id="Capa_1" xmlns="http://www.w3.org/2000/svg" xmlns:xlink="http://www.w3.org/1999/xlink" x="0px" y="0px"
	 viewBox="0 0 512 521" style="enable-background:new 0 0 512 521;" xml:space="preserve">
<style type="text/css">
	.st0{fill:#FFFFFF;}
</style>
<path class="st0" d="M441.9,40.6h-36.1c-4.5,0-8.1-3.6-8.1-8.1s3.6-8.1,8.1-8.1h36.1c4.5,0,8.1,3.6,8.1,8.1S446.4,40.6,441.9,40.6z"
	/>
<g>
	<path class="st0" d="M470.4,4.8h-93.1c-2.5,0-4.6,2.1-4.6,4.6v16.9H142.5c-5.9-8.9-15.9-14.8-27.4-14.8c-18,0-32.7,14.7-32.7,32.7
		c0,12.7,7.3,23.8,18,29.2l88.4,178.8c-2,4.3-3.2,9-3.2,14.1c0,5.5,1.3,10.6,3.7,15.1l-82.5,166.8c-1.8-0.2-3.7-0.3-5.5-0.3
		c-35.5,0-64.3,28.9-64.3,64.3c0,2.5,2.1,4.6,4.6,4.6h119.5c0,0,0,0,0,0c2.5,0,4.6-2.1,4.6-4.6c0-0.2,0-0.3,0-0.5
		c-0.1-20.6-10-38.9-25.2-50.6l80.3-162.3c17-1.2,30.4-15.4,30.4-32.6c0-17.6-14-32-31.5-32.7L137.7,67.9c1.8-1.7,3.4-3.7,4.8-5.8
		h230.2v57.6c0,2.5,2.1,4.6,4.6,4.6h12.4v40.1c0,2.5,2.1,4.6,4.6,4.6h9.8V204c0,1.1,0.4,2.1,1,2.9l14.1,17.1v156.2l-13-13
		c-1.8-1.8-4.7-1.8-6.5,0c-1.8,1.8-1.8,4.7,0,6.5l13.1,13.1h-18.5c-2.5,0-4.6,2.1-4.6,4.6c0,2.5,2.1,4.6,4.6,4.6h18.5l-13.1,13.1
		c-1.8,1.8-1.8,4.7,0,6.5c0.9,0.9,2.1,1.3,3.3,1.3s2.4-0.4,3.3-1.3l13-13v18c0,2.5,2.1,4.6,4.6,4.6s4.6-2.1,4.6-4.6v-18.2l13.1,13.1
		c0.9,0.9,2.1,1.3,3.3,1.3s2.4-0.4,3.3-1.3c1.8-1.8,1.8-4.7,0-6.5L435,396h18.5c2.5,0,4.6-2.1,4.6-4.6c0-2.5-2.1-4.6-4.6-4.6H435
		l13.1-13.1c1.8-1.8,1.8-4.7,0-6.5c-1.8-1.8-4.7-1.8-6.5,0l-13.1,13.1V224l14.1-17.1c0.7-0.8,1-1.9,1-2.9v-34.9h9.8
		c2.5,0,4.6-2.1,4.6-4.6v-40.1h12.4c2.5,0,4.6-2.1,4.6-4.6V9.4C475,6.9,472.9,4.8,470.4,4.8z M465.8,14v43.5H382
		c0-0.3,0-0.6-0.1-0.9V31.9c0.1-0.3,0.1-0.6,0.1-1s0-0.7-0.1-1V14H465.8z M146.1,480.1H89.8c-2.5,0-4.6,2.1-4.6,4.6s2.1,4.6,4.6,4.6
		h60.1c0.5,0,1-0.1,1.5-0.3c2.7,5.7,4.4,12,4.9,18.6H46.4c2.3-28.3,26.1-50.5,54.9-50.5c2.6,0,5.1,0.2,7.6,0.5c0.1,0,0.2,0,0.2,0
		C124.3,459.8,137.5,468.2,146.1,480.1z M116.4,449.7l79.1-160c4.2,4.1,9.5,7.1,15.3,8.4l-78.1,158
		C127.6,453.3,122.2,451.1,116.4,449.7z M241.9,266.2c0,13-10.6,23.5-23.5,23.5c-13,0-23.5-10.6-23.5-23.5s10.6-23.5,23.5-23.5
		C231.3,242.7,241.9,253.3,241.9,266.2z M209.9,234.6c-5.8,1.6-11,4.7-15.1,8.9L112.4,76.8c0.9,0.1,1.9,0.1,2.8,0.1
		c5.4,0,10.5-1.3,15-3.6L209.9,234.6z M115.2,67.8c-13,0-23.5-10.6-23.5-23.5s10.6-23.5,23.5-23.5c13,0,23.5,10.6,23.5,23.5
		S128.2,67.8,115.2,67.8z M146.7,53c0.8-2.8,1.2-5.7,1.2-8.7c0-3-0.4-6-1.2-8.7h226V53H146.7z M434.4,202.3l-10.6,12.8l-10.6-12.8
		v-33.2h21.1V202.3z M448.8,159.9h-50v-35.5h50V159.9z M381.9,115.2V88.5h51.8c2.5,0,4.6-2.1,4.6-4.6s-2.1-4.6-4.6-4.6h-51.8V66.7
		h83.9v48.5H381.9z"/>
	<path class="st0" d="M161.3,520.4l-0.4,0H41.6c-4.5,0-8.1-3.6-8.1-8.1c0-37.4,30.4-67.8,67.8-67.8c1.1,0,2.2,0,3.4,0.1l80.7-163.1
		c-2.2-4.7-3.3-9.9-3.3-15.1c0-4.9,0.9-9.5,2.8-14L97.8,76C86.1,69.6,79,57.6,79,44.2C79,24.3,95.2,8,115.2,8
		c11.6,0,22.3,5.5,29.2,14.8h224.9V9.4c0-4.5,3.6-8.1,8.1-8.1h93.1c4.5,0,8.1,3.6,8.1,8.1v110.4c0,4.5-3.6,8.1-8.1,8.1h-8.9v36.6
		c0,4.5-3.6,8.1-8.1,8.1h-6.3V204c0,1.9-0.7,3.7-1.8,5.1L432,225.3V372l7.2-7.2c1.5-1.5,3.6-2.4,5.7-2.4c2.2,0,4.2,0.8,5.7,2.4
		c3.2,3.2,3.2,8.3,0,11.5l-7.1,7.1h10c4.5,0,8.1,3.6,8.1,8.1s-3.6,8.1-8.1,8.1h-10l7.1,7.1c1.5,1.5,2.4,3.6,2.4,5.7
		s-0.8,4.2-2.4,5.7c-1.5,1.5-3.6,2.4-5.7,2.4c-2.2,0-4.2-0.8-5.7-2.4l-7.2-7.2v9.7c0,4.5-3.6,8.1-8.1,8.1s-8.1-3.6-8.1-8.1v-9.6
		l-7,7c-1.5,1.5-3.6,2.4-5.7,2.4c-2.2,0-4.2-0.8-5.7-2.4c-3.2-3.2-3.2-8.3,0-11.5l7.1-7.1h-10c-4.5,0-8.1-3.6-8.1-8.1
		s3.6-8.1,8.1-8.1h10l-7.1-7.1c-3.2-3.2-3.2-8.3,0-11.5c3.2-3.2,8.3-3.2,11.5,0l7,7V225.3l-13.3-16.2c-1.2-1.5-1.8-3.3-1.8-5.1
		v-31.4h-6.3c-4.5,0-8.1-3.6-8.1-8.1v-36.6h-8.9c-4.5,0-8.1-3.6-8.1-8.1V65.7H144.4c-0.7,1-1.5,2-2.4,2.9l79.9,161.6
		c18.5,1.8,32.7,17.2,32.7,36.1c0,18.2-13.7,33.6-31.6,35.9l-78.1,158.1c15.3,12.8,24.1,31.4,24.3,51.4c0,0.2,0,0.4,0,0.6
		c0,4.3-3.4,7.9-7.7,8.1L161.3,520.4z M101.3,451.4c-33.5,0-60.8,27.3-60.8,60.8c0,0.6,0.5,1.1,1.1,1.1h119.5c0.6,0,1.1-0.5,1.1-1.1
		c0,0,0-0.1,0-0.1l0-0.3c-0.1-18.8-8.8-36.3-23.8-47.8l-2.3-1.8l82.4-166.7l2-0.1c15.2-1.1,27.1-13.9,27.1-29.1
		c0-15.8-12.3-28.6-28.1-29.2l-2.1-0.1L133.5,67.2l1.9-1.8c1.6-1.5,3.1-3.3,4.3-5.1l1-1.6h235.6v61.1c0,0.6,0.5,1.1,1.1,1.1h15.9
		v43.6c0,0.6,0.5,1.1,1.1,1.1h13.3V204c0,0.3,0.1,0.5,0.3,0.7l14.9,18.1v165.9l-19-19c-0.4-0.4-1.1-0.4-1.6,0
		c-0.4,0.4-0.4,1.1,0,1.6l19,19h-26.9c-0.6,0-1.1,0.5-1.1,1.1s0.5,1.1,1.1,1.1h26.9l-19,19c-0.3,0.3-0.3,0.6-0.3,0.8s0,0.5,0.3,0.8
		c0.3,0.3,0.6,0.3,0.8,0.3c0.2,0,0.5-0.1,0.8-0.3l19-19v26.5c0,0.6,0.5,1.1,1.1,1.1s1.1-0.5,1.1-1.1V394l19.1,19.1
		c0.3,0.3,0.6,0.3,0.8,0.3c0.2,0,0.5,0,0.8-0.3c0.3-0.3,0.3-0.6,0.3-0.8s-0.1-0.5-0.3-0.8l-19-19h26.9c0.6,0,1.1-0.5,1.1-1.1
		s-0.5-1.1-1.1-1.1h-26.9l19-19c0.4-0.4,0.4-1.1,0-1.6c-0.3-0.3-0.6-0.3-0.8-0.3c-0.2,0-0.5,0-0.8,0.3L425,388.9V222.8l14.9-18.1
		c0.2-0.2,0.3-0.4,0.3-0.7v-38.4h13.3c0.6,0,1.1-0.5,1.1-1.1v-43.6h15.9c0.6,0,1.1-0.5,1.1-1.1V9.4c0-0.6-0.5-1.1-1.1-1.1h-93.1
		c-0.6,0-1.1,0.5-1.1,1.1v20.4H140.7l-1-1.6C134.2,20,125,15,115.2,15C99.1,15,86,28.1,86,44.2c0,11.1,6.1,21,16,26.1l1,0.5l0.5,1
		l89.1,180.3l-0.7,1.5c-1.9,3.9-2.8,8.2-2.8,12.5c0,4.8,1.1,9.3,3.3,13.5l0.8,1.6L109,451.9l-2.4-0.2
		C104.7,451.5,103,451.4,101.3,451.4z M160.1,511.1H42.6l0.3-3.8c2.5-30.1,28.2-53.7,58.4-53.7c2.7,0,5.4,0.2,8.1,0.6l0.3,0
		c15.7,2.2,30,10.9,39.3,23.9l4,5.5H89.8c-0.6,0-1.1,0.5-1.1,1.1s0.5,1.1,1.1,1.1h60.1c0.1,0,0.2,0,0.4-0.1l3-1l1.3,2.9
		c2.9,6.3,4.7,12.9,5.2,19.7L160.1,511.1z M50.3,504.1h102c-0.6-3.9-1.7-7.6-3.2-11.3H89.8c-4.5,0-8.1-3.6-8.1-8.1s3.6-8.1,8.1-8.1
		h48.9c-8-8.3-18.5-13.9-29.9-15.5c-0.1,0-0.2,0-0.3,0C80.1,457.2,54.6,477.2,50.3,504.1z M134.2,461l-3.2-1.8
		c-4.9-2.7-10.1-4.8-15.5-6.1l-4.3-1l83.2-168.3l3.4,3.4c3.8,3.7,8.5,6.3,13.7,7.5l4.3,1L134.2,461z M121.4,447.5
		c3.4,1,6.6,2.3,9.8,3.9l74.7-151.1c-3.3-1.2-6.4-2.9-9.2-5L121.4,447.5z M218.3,293.3c-14.9,0-27-12.1-27-27s12.1-27,27-27
		s27,12.1,27,27S233.2,293.3,218.3,293.3z M218.3,246.2c-11,0-20,9-20,20c0,11,9,20,20,20s20-9,20-20
		C238.4,255.2,229.4,246.2,218.3,246.2z M193.8,249.6L106.5,72.8l6.2,0.5c0.9,0.1,1.7,0.1,2.5,0.1c4.7,0,9.2-1.1,13.4-3.2l3.2-1.6
		l83.2,168.3l-4.1,1.1c-5.1,1.4-9.8,4.1-13.5,8L193.8,249.6z M118,80.4l77.9,157.5c2.8-2.2,5.8-4,9.1-5.3L128.5,77.9
		C125.1,79.3,121.6,80.1,118,80.4z M423.9,220.7l-14-17.1v-38h28.1v38L423.9,220.7z M416.8,201.1l7,8.6l7-8.6v-28.5h-14.1V201.1z
		 M452.3,163.4h-57v-42.5h57V163.4z M402.4,156.4h43v-28.5h-43V156.4z M469.3,118.7h-90.9V85h55.3c0.6,0,1.1-0.5,1.1-1.1
		s-0.5-1.1-1.1-1.1h-55.3V63.2h90.9V118.7z M385.4,111.7h76.9V70.2h-76.9v5.6h48.3c4.5,0,8.1,3.6,8.1,8.1s-3.6,8.1-8.1,8.1h-48.3
		V111.7z M115.2,71.3c-14.9,0-27-12.1-27-27c0-14.9,12.1-27,27-27c14.9,0,27,12.1,27,27C142.2,59.2,130.1,71.3,115.2,71.3z
		 M115.2,24.2c-11,0-20,9-20,20c0,11,9,20,20,20s20-9,20-20C135.2,33.2,126.2,24.2,115.2,24.2z M469.3,61h-90.7l-0.1-3.4
		c0-0.1,0-0.2,0-0.2l-0.1-0.4V31.5l0.1-0.4c0-0.1,0-0.2,0-0.2s0-0.1,0-0.2l-0.1-0.4V10.5h90.9V61z M385.4,54h76.9V17.5h-76.9v12
		c0.1,0.4,0.1,0.9,0.1,1.3s0,0.9-0.1,1.3V54z M376.2,56.5H142.1l1.2-4.4c0.7-2.6,1.1-5.2,1.1-7.8c0-2.6-0.4-5.3-1.1-7.8l-1.2-4.4
		h234.1V56.5z M151,49.5h218.2V39H151c0.3,1.7,0.4,3.5,0.4,5.2C151.4,46,151.3,47.8,151,49.5z"/>
</g>
<path class="st0" d="M405.8,37.1h36.1c2.5,0,4.6-2.1,4.6-4.6s-2.1-4.6-4.6-4.6h-36.1c-2.5,0-4.6,2.1-4.6,4.6S403.3,37.1,405.8,37.1z
	"/>
</svg>
