<?xml version="1.0" encoding="utf-8"?>
<!-- Generator: Adobe Illustrator 21.1.0, SVG Export Plug-In . SVG Version: 6.00 Build 0)  -->
<svg version="1.1" id="Capa_1" xmlns="http://www.w3.org/2000/svg" xmlns:xlink="http://www.w3.org/1999/xlink" x="0px" y="0px"
	 viewBox="0 0 512 512" style="enable-background:new 0 0 512 512;" xml:space="preserve">
<style type="text/css">
	.st0{fill:#FFFFFF;}
</style>
<g>
	<path class="st0" d="M70.2,191.6c-6.4,0-11.7-5.2-11.7-11.7s5.2-11.7,11.7-11.7s11.7,5.2,11.7,11.7S76.6,191.6,70.2,191.6z"/>
	<path class="st0" d="M70.2,143.3c-6.4,0-11.7-5.2-11.7-11.7S63.7,120,70.2,120s11.7,5.2,11.7,11.7S76.6,143.3,70.2,143.3z"/>
	<path class="st0" d="M70.2,343.5c-1.7,0-3-1.3-3-3c0-1.7,1.3-3,3-3h372.5c1.7,0,3,1.3,3,3c0,1.7-1.3,3-3,3H70.2z"/>
	<path class="st0" d="M55.4,249c-4,0-7.3-3.3-7.3-7.3c0-4,3.3-7.3,7.3-7.3h29.5c4,0,7.3,3.3,7.3,7.3c0,4-3.3,7.3-7.3,7.3H55.4z"/>
	<path class="st0" d="M451.4,449.2c-4,0-7.3-3.3-7.3-7.3s3.3-7.3,7.3-7.3h11.7V392H48.9v42.5h11.7c4,0,7.3,3.3,7.3,7.3
		s-3.3,7.3-7.3,7.3H22.5c-4,0-7.3-3.3-7.3-7.3s3.3-7.3,7.3-7.3h11.7V392H13c-4,0-7.3-3.3-7.3-7.3V70.2c0-4,3.3-7.3,7.3-7.3h114.4
		c4,0,7.3,3.3,7.3,7.3v39l9-6.7c17.2-12.7,35.4-19.1,54-19.1c0.6,0,1.2,0,1.8,0c35.5,0.8,62.5,24.6,72.4,34.8l1.7,1.7h30.2
		c4,0,7.3,3.3,7.3,7.3v21.3h102.1c4,0,7.3,3.3,7.3,7.3v55l53.8,80.7H499c4,0,7.3,3.3,7.3,7.3v85.8c0,4-3.3,7.3-7.3,7.3h-21.3v42.5
		h11.7c4,0,7.3,3.3,7.3,7.3s-3.3,7.3-7.3,7.3H451.4z M20.3,377.3h471.4v-71.1H20.3V377.3z M134.7,291.6h322.1l-47.4-71.1h-98.1v20.9
		c0,2.5-1.2,4.7-3.3,6.1l-38.8,25.8c-1.2,0.8-2.6,1.2-4.1,1.2s-2.9-0.4-4.1-1.2l-38.8-25.8c-2-1.4-3.3-3.6-3.3-6.1v-20.9h-84.3
		V291.6z M20.3,291.6H120V77.5H20.3V291.6z M233.7,237.4l31.4,21l31.4-21V134.7h-62.9V237.4z M311.2,205.8h94.7v-42.5h-94.7V205.8z
		 M134.7,205.8H219v-42.5h-84.3V205.8z M197.5,98.1c-21.1,0-41.7,10.2-61.2,30.5l-1.6,1.6v18.4H219v-21.3c0-4,3.3-7.3,7.3-7.3h28.9
		l-18.4-10.6c-12.6-7.3-25.3-11.1-37.9-11.3C198.5,98.1,198,98.1,197.5,98.1z"/>
</g>
</svg>
