<?xml version="1.0" encoding="iso-8859-1"?>
<!-- Generator: Adobe Illustrator 19.0.0, SVG Export Plug-In . SVG Version: 6.00 Build 0)  -->
<svg xmlns="http://www.w3.org/2000/svg" xmlns:xlink="http://www.w3.org/1999/xlink" version="1.1" id="Layer_1" x="0px" y="0px" viewBox="0 0 512.001 512.001" style="enable-background:new 0 0 512.001 512.001;" xml:space="preserve" width="512px" height="512px">
<g>
	<g>
		<g>
			<path d="M87.806,167.534c-5.529,0-10.892,1.978-15.102,5.572c-9.759,8.332-10.919,23.051-2.588,32.809     c4.429,5.185,10.881,8.16,17.705,8.16c5.53,0,10.893-1.979,15.102-5.572c9.758-8.329,10.92-23.047,2.588-32.808     C101.083,170.508,94.629,167.534,87.806,167.534z M92.493,196.284c-1.672,1.425-3.463,1.725-4.672,1.725     c-2.116,0-4.117-0.921-5.488-2.527c-2.58-3.021-2.22-7.58,0.801-10.16c1.672-1.425,3.461-1.724,4.671-1.724     c2.116,0,4.117,0.921,5.488,2.526C95.872,189.148,95.513,193.705,92.493,196.284z" fill="#FFFFFF"/>
			<path d="M227.618,330.52c-12.832,0-23.272,10.439-23.272,23.272c0,12.833,10.44,23.272,23.272,23.272     c12.831,0,23.27-10.439,23.27-23.272C250.888,340.96,240.45,330.52,227.618,330.52z M227.618,361     c-3.973,0-7.207-3.233-7.207-7.207s3.233-7.207,7.207-7.207c3.972,0,7.205,3.233,7.205,7.207S231.591,361,227.618,361z" fill="#FFFFFF"/>
			<path d="M166.293,29.34c-12.831,0-23.27,10.439-23.27,23.272c0,12.833,10.438,23.272,23.27,23.272s23.272-10.439,23.272-23.272     C189.565,39.779,179.125,29.34,166.293,29.34z M166.293,59.818c-3.972,0-7.205-3.233-7.205-7.207s3.232-7.207,7.205-7.207     c3.973,0,7.207,3.233,7.207,7.207S170.267,59.818,166.293,59.818z" fill="#FFFFFF"/>
			<path d="M481.983,101.474V20.885C481.983,9.369,472.614,0,461.099,0h-18.278c-11.516,0-20.885,9.369-20.885,20.885v6.843h-53.593     c-1.931-9.533-10.374-16.732-20.467-16.732H321.1h-53.814c-10.094,0-18.536,7.199-20.467,16.732h-37.945     C200.299,13.111,184.429,3.27,166.293,3.27c-27.206,0-49.339,22.135-49.339,49.341c0,9.336,2.608,18.074,7.131,25.528     l-35.967,63.334c-0.108-0.001-0.215-0.009-0.323-0.009c-11.721,0-23.093,4.196-32.017,11.815     c-10.024,8.556-16.115,20.506-17.152,33.644c-1.037,13.138,3.105,25.895,11.662,35.92c3.139,3.677,6.767,6.815,10.735,9.382     c1.017,9.263,4.575,31.98,16.485,58.756c13.714,30.835,41.533,72.919,96.47,100.603v44.061H120.17     c-2.889,0-5.556,1.551-6.984,4.063L98.36,465.791H51.473c-11.83,0-21.456,9.625-21.456,21.456v3.299     c0,11.83,9.625,21.456,21.456,21.456h288.093c4.437,0,8.033-3.595,8.033-8.033s-3.595-8.033-8.033-8.033H51.473     c-2.972,0-5.39-2.418-5.39-5.39v-3.299c0-2.972,2.418-5.39,5.39-5.39h51.395c0.006,0,0.013,0,0.019,0h249.305     c0.005,0,0.011,0.001,0.016,0.001s0.011-0.001,0.016-0.001h51.539c2.972,0,5.39,2.418,5.39,5.39v3.299     c0,2.972-2.418,5.39-5.39,5.39h-37.067c-4.437,0-8.033,3.595-8.033,8.033s3.595,8.033,8.033,8.033h37.067     c11.83,0,21.456-9.625,21.456-21.456v-3.299c0-11.83-9.625-21.456-21.456-21.456h-46.89l-14.826-26.082     c-1.428-2.513-4.094-4.063-6.984-4.063h-53.804v-83.041c0-29.576-24.063-53.638-53.641-53.638c-4.596,0-9.056,0.583-13.316,1.674     l-35.57-41.662c-2.879-3.372-7.949-3.774-11.325-0.893c-3.374,2.88-3.773,7.951-0.893,11.325l32.355,37.897     c-5.006,3.171-9.439,7.146-13.137,11.775l-73.1-85.623c2.538-1.479,4.949-3.19,7.219-5.127c0.594-0.509,1.174-1.029,1.741-1.562     c0.226-0.212,0.441-0.432,0.663-0.647c0.331-0.322,0.663-0.643,0.983-0.972c0.279-0.286,0.546-0.581,0.816-0.872     c0.241-0.26,0.484-0.519,0.72-0.785c0.325-0.365,0.638-0.739,0.951-1.113c0.105-0.125,0.215-0.246,0.319-0.373l23.217,27.196     c2.879,3.372,7.949,3.774,11.325,0.893c3.373-2.88,3.773-7.951,0.893-11.325l-27.07-31.707c1.371-3.95,2.253-8.098,2.591-12.377     c0.824-10.443-1.635-20.641-6.972-29.42l35.96-63.322c0.102,0.001,0.201,0.008,0.303,0.008c18.135,0,34.007-9.842,42.581-24.458     h37.944c1.93,9.534,10.373,16.735,20.468,16.735h53.814h26.775c10.094,0,18.537-7.2,20.468-16.735h53.593v23.981     c0,6.762,3.246,12.768,8.246,16.587v28.47c-5.001,3.819-8.246,9.824-8.246,16.587v14.187c0,11.516,9.369,20.885,20.885,20.885     h1.106v29.214c0,4.437,3.595,8.033,8.033,8.033c4.437,0,8.033-3.595,8.033-8.033v-29.214h1.106     c11.516,0,20.885-9.369,20.885-20.885V163.12c0-6.112-2.656-11.602-6.854-15.425v-30.794     C479.328,113.076,481.983,107.586,481.983,101.474z M190.043,352.604c0-20.719,16.856-37.573,37.575-37.573     s37.575,16.854,37.575,37.573v83.041h-75.151V352.604z M273.227,451.71h57.165l8.003,14.08H116.84l8.004-14.08h57.167H273.227z      M177.32,333.97c-2.158,5.807-3.343,12.083-3.343,18.632v20.832c-36.939-20.389-64.333-50.072-81.529-88.393     c-8.329-18.564-12.303-35.189-14.171-45.844c3.12,0.614,6.315,0.947,9.553,0.947c2.94,0,5.858-0.265,8.721-0.781L177.32,333.97z      M120.987,193.421c-0.32,4.059-1.364,7.947-3.043,11.526c-0.026,0.052-0.059,0.1-0.085,0.152c-0.997,2.1-2.198,4.067-3.588,5.89     c-0.021,0.028-0.042,0.057-0.064,0.085c-0.303,0.395-0.619,0.781-0.94,1.162c-0.059,0.07-0.116,0.142-0.176,0.212     c-0.296,0.345-0.603,0.681-0.915,1.015c-0.085,0.091-0.166,0.185-0.252,0.275c-0.321,0.336-0.653,0.664-0.989,0.987     c-0.077,0.075-0.151,0.152-0.228,0.226c-0.418,0.395-0.846,0.781-1.286,1.157c-0.416,0.354-0.839,0.695-1.268,1.026     c-0.157,0.122-0.319,0.238-0.479,0.357c-0.262,0.196-0.526,0.39-0.794,0.577c-0.222,0.155-0.447,0.306-0.673,0.455     c-0.205,0.136-0.409,0.269-0.617,0.401c-0.262,0.166-0.527,0.33-0.795,0.488c-0.168,0.1-0.337,0.196-0.508,0.292     c-0.297,0.169-0.594,0.338-0.896,0.498c-0.123,0.065-0.248,0.125-0.373,0.19c-0.661,0.339-1.332,0.656-2.013,0.951     c-0.111,0.048-0.222,0.101-0.334,0.148c-0.241,0.101-0.486,0.192-0.73,0.288c-0.273,0.107-0.545,0.214-0.821,0.314     c-0.208,0.075-0.417,0.145-0.625,0.215c-0.329,0.111-0.659,0.219-0.992,0.32c-3.116,0.949-6.373,1.45-9.672,1.45     c-9.763,0-18.994-4.253-25.325-11.669c-5.772-6.759-8.565-15.363-7.866-24.223c0.699-8.86,4.807-16.92,11.568-22.69     c6.018-5.139,13.684-7.968,21.585-7.968c1.299,0,2.588,0.08,3.862,0.229c0.014,0.002,0.028,0.006,0.042,0.008     c1.433,0.168,2.841,0.433,4.223,0.779c0.165,0.042,0.332,0.079,0.496,0.123c0.314,0.084,0.623,0.177,0.934,0.269     c0.238,0.071,0.477,0.142,0.713,0.219c0.268,0.087,0.534,0.178,0.799,0.271c0.281,0.1,0.561,0.201,0.84,0.307     c0.229,0.088,0.457,0.176,0.684,0.269c0.323,0.132,0.644,0.27,0.962,0.412c0.183,0.081,0.368,0.162,0.55,0.246     c0.401,0.187,0.797,0.385,1.189,0.587c0.1,0.051,0.201,0.1,0.301,0.152c0.51,0.27,1.013,0.553,1.509,0.848     c0.001,0,0.001,0.001,0.002,0.001c0.48,0.287,0.951,0.589,1.417,0.901c0.123,0.082,0.243,0.169,0.365,0.254     c0.34,0.234,0.677,0.473,1.009,0.72c0.153,0.114,0.303,0.231,0.454,0.348c0.295,0.228,0.587,0.461,0.874,0.698     c0.161,0.133,0.32,0.268,0.479,0.404c0.274,0.236,0.544,0.479,0.812,0.724c0.155,0.142,0.311,0.284,0.464,0.429     c0.278,0.266,0.549,0.539,0.819,0.815c0.129,0.132,0.259,0.259,0.386,0.392c0.39,0.412,0.771,0.832,1.142,1.266     c0.346,0.406,0.68,0.818,1.006,1.237c0.014,0.018,0.029,0.034,0.043,0.052C119.229,177.035,121.643,185.115,120.987,193.421z      M118.841,152.434c-0.375-0.303-0.758-0.593-1.141-0.886c-0.071-0.054-0.139-0.11-0.211-0.164     c-0.685-0.516-1.383-1.015-2.093-1.495c-0.019-0.013-0.039-0.025-0.058-0.037c-0.659-0.443-1.329-0.866-2.008-1.277     c-0.136-0.083-0.273-0.163-0.41-0.244c-0.608-0.359-1.223-0.706-1.845-1.038c-0.114-0.061-0.226-0.124-0.341-0.184     c-0.741-0.389-1.49-0.761-2.25-1.111c-0.027-0.013-0.054-0.024-0.08-0.035c-0.691-0.317-1.39-0.614-2.095-0.899     c-0.228-0.092-0.457-0.179-0.685-0.268c-0.251-0.097-0.499-0.201-0.752-0.293l30.409-53.547c0.168,0.135,0.342,0.262,0.512,0.396     c4.027,3.177,8.55,5.749,13.444,7.558L118.841,152.434z M199.524,54.337c-0.014,0.278-0.042,0.554-0.063,0.831     c-0.022,0.291-0.039,0.584-0.069,0.874c-0.032,0.312-0.077,0.618-0.118,0.926c-0.033,0.255-0.061,0.51-0.101,0.764     c-0.046,0.301-0.106,0.597-0.161,0.894c-0.048,0.26-0.091,0.522-0.145,0.781c-0.057,0.274-0.125,0.545-0.19,0.816     c-0.066,0.284-0.131,0.568-0.205,0.848c-0.063,0.241-0.135,0.478-0.203,0.715c-0.09,0.313-0.18,0.625-0.28,0.937     c-0.067,0.21-0.141,0.418-0.212,0.625c-0.115,0.333-0.23,0.666-0.356,0.996c-0.075,0.197-0.153,0.392-0.231,0.587     c-0.132,0.329-0.267,0.655-0.409,0.981c-5.143,11.746-16.871,19.972-30.49,19.972c-1.334,0-2.649-0.088-3.943-0.242     c-0.529-0.063-1.057-0.137-1.581-0.226c-0.017-0.003-0.035-0.006-0.052-0.01c-4.909-0.835-9.576-2.788-13.626-5.65     c-0.001,0-0.002-0.001-0.003-0.002c-0.414-0.293-0.821-0.599-1.223-0.91c-0.075-0.059-0.149-0.117-0.224-0.176     c-0.32-0.254-0.635-0.514-0.947-0.78c-0.142-0.122-0.284-0.243-0.424-0.367c-0.234-0.207-0.464-0.418-0.692-0.631     c-0.199-0.186-0.398-0.374-0.593-0.565c-0.161-0.157-0.318-0.318-0.474-0.479c-0.242-0.247-0.483-0.497-0.718-0.753     c-0.104-0.114-0.206-0.229-0.308-0.344c-0.269-0.301-0.534-0.604-0.793-0.915c-0.069-0.081-0.134-0.166-0.201-0.248     c-4.666-5.729-7.471-13.032-7.471-20.979c0-18.349,14.928-33.276,33.274-33.276c13.624,0,25.357,8.234,30.498,19.985     c0.137,0.313,0.267,0.628,0.393,0.944c0.082,0.207,0.167,0.413,0.245,0.622c0.12,0.318,0.231,0.638,0.342,0.96     c0.076,0.22,0.153,0.439,0.224,0.661c0.095,0.299,0.182,0.601,0.269,0.902c0.072,0.25,0.147,0.497,0.213,0.748     c0.072,0.271,0.133,0.544,0.197,0.816c0.066,0.282,0.137,0.562,0.196,0.847c0.051,0.25,0.093,0.501,0.139,0.751     c0.057,0.307,0.117,0.613,0.165,0.922c0.039,0.245,0.065,0.494,0.097,0.74c0.042,0.316,0.088,0.63,0.121,0.948     c0.029,0.286,0.045,0.573,0.068,0.86c0.021,0.282,0.05,0.561,0.064,0.844c0.029,0.573,0.045,1.149,0.045,1.728     C199.568,53.188,199.553,53.763,199.524,54.337z M246.399,61.427h-31.554c0.05-0.27,0.087-0.544,0.131-0.816     c0.046-0.278,0.091-0.557,0.132-0.836c0.076-0.519,0.14-1.041,0.199-1.565c0.03-0.268,0.064-0.534,0.09-0.803     c0.055-0.56,0.093-1.122,0.129-1.686c0.015-0.236,0.035-0.469,0.047-0.707c0.039-0.798,0.061-1.599,0.061-2.403     c0-0.804-0.022-1.605-0.061-2.404c-0.012-0.236-0.032-0.468-0.047-0.703c-0.035-0.565-0.075-1.13-0.129-1.692     c-0.026-0.266-0.059-0.528-0.089-0.791c-0.06-0.528-0.124-1.055-0.201-1.581c-0.04-0.273-0.085-0.545-0.13-0.817     c-0.045-0.276-0.081-0.556-0.132-0.831h31.554V61.427z M313.067,78.162h-45.781c-2.657,0-4.82-2.161-4.82-4.82V69.46v-33.7v-3.88     c0-2.657,2.162-4.82,4.82-4.82h45.781V78.162z M352.695,35.76v33.701v3.881c0,2.657-2.162,4.82-4.82,4.82h-18.743V27.06h18.743     c2.657,0,4.82,2.162,4.82,4.82V35.76z M421.936,61.429H368.76v-0.001V43.793h53.176V61.429z M465.918,177.305     c0,2.657-2.162,4.82-4.82,4.82h-18.278c-2.657,0-4.82-2.162-4.82-4.82v-14.187c0-2.083,1.336-3.844,3.19-4.516     c0.246-0.09,0.495-0.165,0.744-0.214c0.288-0.054,0.583-0.089,0.886-0.089h18.278c0.3,0,0.591,0.035,0.876,0.089     c0.051,0.01,0.104,0.017,0.155,0.029c0.266,0.058,0.523,0.139,0.77,0.239c0.065,0.027,0.129,0.058,0.193,0.088     c1.662,0.761,2.825,2.43,2.825,4.375V177.305z M446.247,142.233v-19.875h12.817v19.875H446.247z M465.918,101.474     c0,1.945-1.164,3.615-2.826,4.375c-0.064,0.029-0.127,0.061-0.192,0.088c-0.247,0.101-0.504,0.181-0.77,0.24     c-0.051,0.011-0.104,0.019-0.155,0.029c-0.285,0.052-0.576,0.089-0.876,0.089h-18.278c-0.302,0-0.596-0.035-0.883-0.089     c-0.27-0.054-0.54-0.132-0.809-0.234c-1.823-0.689-3.128-2.437-3.128-4.497V69.46v-33.7V20.885c0-2.657,2.162-4.82,4.82-4.82     h18.278c2.657,0,4.82,2.162,4.82,4.82V101.474z" fill="#FFFFFF"/>
		</g>
	</g>
</g>
<g>
</g>
<g>
</g>
<g>
</g>
<g>
</g>
<g>
</g>
<g>
</g>
<g>
</g>
<g>
</g>
<g>
</g>
<g>
</g>
<g>
</g>
<g>
</g>
<g>
</g>
<g>
</g>
<g>
</g>
</svg>
