<?xml version="1.0" encoding="utf-8"?>
<!-- Generator: Adobe Illustrator 21.1.0, SVG Export Plug-In . SVG Version: 6.00 Build 0)  -->
<svg version="1.1" id="Capa_1" xmlns="http://www.w3.org/2000/svg" xmlns:xlink="http://www.w3.org/1999/xlink" x="0px" y="0px"
	 viewBox="0 0 512 512" style="enable-background:new 0 0 512 512;" xml:space="preserve">
<style type="text/css">
	.st0{fill:#FFFFFF;}
</style>
<g>
	<g>
		<path class="st0" d="M8.1,496.1c-4.5,0-8.1-3.7-8.1-8.1v-30.9c0-38.5,31.3-69.8,69.8-69.8h22.7v-46.5H69.8c-4.5,0-8.1-3.7-8.1-8.1
			V209.2c0-33.1,23.5-61.8,55.9-68.4l5.8-1.2V85.7c0-38.5,31.3-69.7,69.7-69.7H255c38.5,0,69.8,31.3,69.8,69.8v84.5h179
			c4.5,0,8.1,3.7,8.1,8.1v61.7c0,4.5-3.7,8.1-8.1,8.1h-55.6v51.2c0,14.7-7.5,28.1-20,35.8c-6.7,4.1-14.3,6.3-22,6.3
			c-18.2,0-34.3-11.6-40-28.8l-5.7-17l-97.4,17.7v19.2c0,4.5-3.7,8.1-8.1,8.1h-22.7v46.5H255c38.5,0,69.8,31.3,69.8,69.8v30.9
			c0,4.5-3.7,8.1-8.1,8.1H8.1z M69.8,403.5c-29.5,0-53.6,24-53.6,53.6v22.7h292.3v-22.7c0-29.5-24-53.6-53.6-53.6H69.8z
			 M108.8,387.2H216v-46.5H108.8V387.2z M366.1,278.3c3.5,0,6.6,2.2,7.7,5.6l7.9,23.7c3.5,10.6,13.4,17.7,24.5,17.7
			c4.7,0,9.4-1.3,13.6-3.9c7.8-4.8,12.2-12.8,12.2-22V186.5H324.8v22.7c0,21.5-17.5,39-39,39c-4.4,0-8.8-0.8-13-2.2l-9.7-3.4v54.4
			l101.5-18.5C365.1,278.3,365.6,278.3,366.1,278.3z M78,324.5h168.8V155.6H131.6c-22.6,0-42.9,14.3-50.5,35.7l-3.4,9.7h115.7
			c4.5,0,8.1,3.7,8.1,8.1v61.7c0,4.5-3.7,8.1-8.1,8.1H78V324.5z M78,262.8h107.1v-45.4H78V262.8z M448.2,231.9h47.5v-45.4h-47.5
			V231.9z M255,77.6c4.5,0,8.1,3.7,8.1,8.1v123.4c0,12.5,10.2,22.7,22.7,22.7c12.5,0,22.7-10.2,22.7-22.7V85.8
			c0-29.5-24-53.5-53.5-53.5h-61.9c-29.5,0-53.5,24-53.5,53.5v53.7h45.4V85.8c0-4.5,3.7-8.1,8.1-8.1H255z M201.4,139.4h45.4V93.9
			h-45.4V139.4z"/>
	</g>
</g>
</svg>
