<?xml version="1.0" encoding="iso-8859-1"?>
<!-- Generator: Adobe Illustrator 19.0.0, SVG Export Plug-In . SVG Version: 6.00 Build 0)  -->
<svg xmlns="http://www.w3.org/2000/svg" xmlns:xlink="http://www.w3.org/1999/xlink" version="1.1" id="Capa_1" x="0px" y="0px" viewBox="0 0 496 496" style="enable-background:new 0 0 496 496;" xml:space="preserve" width="512px" height="512px">
<g>
	<g>
		<path d="M448,224h-0.88c10.4-10.176,16.88-24.336,16.88-40c0-30.88-25.12-56-56-56c-22.28,0-41.512,13.112-50.52,32H336v-32    c0-61.76-50.24-112-112-112h-48V0H48v16.4L0,18.84v42.312L48,63.6V80h128V64h40c39.696,0,72,32.304,72,72v200h-16v16h16v16h-16v64    h80v-64h-16v-16h16v-16h-16v-96h32v256h128V272C496,245.528,474.472,224,448,224z M48,47.584l-32-1.632V34.048l32-1.632V47.584z     M160,64H64V16h96V64z M216,48h-40V32h48c52.936,0,96,43.064,96,96v208h-16V136C304,87.48,264.52,48,216,48z M320,352v16h-16v-16    H320z M336,416h-48v-32h48V416z M368,224h-32v-48h16.64c-0.376,2.624-0.64,5.28-0.64,8c0,15.664,6.48,29.824,16.88,40H368z     M368.808,192H384v-16h-15.192c1.04-5.096,3.072-9.832,5.856-14.024l10.712,10.712l11.312-11.312l-10.712-10.712    c4.192-2.784,8.928-4.816,14.024-5.856V160h16v-15.192c5.096,1.04,9.832,3.072,14.024,5.856l-10.712,10.712l11.312,11.312    l10.712-10.712c2.784,4.192,4.816,8.928,5.856,14.024H432v16h15.192c-1.04,5.096-3.072,9.832-5.856,14.024l-10.712-10.712    l-11.312,11.312l10.712,10.712c-4.192,2.784-8.928,4.816-14.024,5.856V208h-16v15.192c-5.096-1.04-9.832-3.072-14.024-5.856    l10.712-10.712l-11.312-11.312l-10.712,10.712C371.88,201.832,369.848,197.096,368.808,192z M480,480h-96v-16h56    c13.232,0,24-10.768,24-24v-16h-16v16c0,4.416-3.592,8-8,8h-56V272h56c4.408,0,8,3.584,8,8v128h16V280c0-13.232-10.768-24-24-24    h-56v-16h64c17.648,0,32,14.352,32,32V480z" fill="#FFFFFF"/>
	</g>
</g>
<g>
</g>
<g>
</g>
<g>
</g>
<g>
</g>
<g>
</g>
<g>
</g>
<g>
</g>
<g>
</g>
<g>
</g>
<g>
</g>
<g>
</g>
<g>
</g>
<g>
</g>
<g>
</g>
<g>
</g>
</svg>
