<?xml version="1.0" encoding="utf-8"?>
<!-- Generator: Adobe Illustrator 21.1.0, SVG Export Plug-In . SVG Version: 6.00 Build 0)  -->
<svg version="1.1" id="Capa_1" xmlns="http://www.w3.org/2000/svg" xmlns:xlink="http://www.w3.org/1999/xlink" x="0px" y="0px"
	 viewBox="0 0 512 512" style="enable-background:new 0 0 512 512;" xml:space="preserve">
<style type="text/css">
	.st0{fill:#FFFFFF;}
</style>
<path class="st0" d="M8.8,512C4,512,0,508,0,503.2v-129c0-4.9,4-8.8,8.8-8.8h23.4V168.1H8.8c-4.9,0-8.8-4-8.8-8.8v-86
	c0-4,2.7-7.5,6.6-8.5l247-64.4c0.8-0.2,1.5-0.3,2.3-0.3l0.2,0c0.8,0,1.6,0.1,2.4,0.3l247,64.4c3.9,1,6.6,4.5,6.6,8.5v86
	c0,4.9-4,8.8-8.8,8.8h-23.4v197.3h23.4c4.9,0,8.8,4,8.8,8.8v129c0,4.9-4,8.8-8.8,8.8H8.8z M447.5,494.3h46.8V383h-46.8V494.3z
	 M49.9,302.6v62.7h23.4c4.9,0,8.8,4,8.8,8.8v120.1h347.7V374.2c0-4.9,4-8.8,8.8-8.8h23.4v-62.7L327.6,168.1H184.4L49.9,302.6z
	 M17.7,494.3h46.8V383H17.7V494.3z M462.1,277.7V168.1H352.5L462.1,277.7z M49.9,277.7l109.6-109.6H49.9V277.7z M415.3,150.5h79.1
	V80.1l-79.1-20.6V150.5z M277.3,150.5h120.3V54.9L378,49.8L277.3,150.5z M114.4,54.9v95.5h120.3L134,49.8L114.4,54.9z M17.7,80.1
	v70.3h79.1V59.5L17.7,80.1z M264.8,138l93.3-93.3l-93.3-24.4V138z M153.8,44.6l93.3,93.3V20.3L153.8,44.6z"/>
</svg>
