<?xml version="1.0"?>
<svg xmlns="http://www.w3.org/2000/svg" height="512px" viewBox="0 -24 416.42667 416" width="512px"><path d="m375.464844 95.785156h-266.238282c-3.773437 0-6.828124-3.054687-6.828124-6.824218v-54.613282c0-3.773437 3.054687-6.828125 6.828124-6.828125h266.238282c3.773437 0 6.828125 3.054688 6.828125 6.828125v54.613282c0 3.769531-3.054688 6.824218-6.828125 6.824218zm-259.410156-13.652344h252.585937v-40.960937h-252.585937zm0 0" fill="#FFFFFF"/><path d="m375.464844 150.398438h-266.238282c-3.773437 0-6.828124-3.054688-6.828124-6.824219v-54.613281c0-3.773438 3.054687-6.828126 6.828124-6.828126h266.238282c3.773437 0 6.828125 3.054688 6.828125 6.828126v54.613281c0 3.769531-3.054688 6.824219-6.828125 6.824219zm-259.410156-13.652344h252.585937v-40.960938h-252.585937zm0 0" fill="#FFFFFF"/><path d="m375.464844 205.011719h-266.238282c-3.773437 0-6.828124-3.054688-6.828124-6.824219v-54.613281c0-3.773438 3.054687-6.828125 6.828124-6.828125h266.238282c3.773437 0 6.828125 3.054687 6.828125 6.828125v54.613281c0 3.769531-3.054688 6.824219-6.828125 6.824219zm-259.410156-13.652344h252.585937v-40.960937h-252.585937zm0 0" fill="#FFFFFF"/><path d="m375.464844 266.453125h-266.238282c-3.773437 0-6.828124-3.054687-6.828124-6.828125v-61.4375c0-3.773438 3.054687-6.828125 6.828124-6.828125h266.238282c3.773437 0 6.828125 3.054687 6.828125 6.828125v61.4375c0 3.773438-3.054688 6.828125-6.828125 6.828125zm-259.410156-13.652344h252.585937v-47.789062h-252.585937zm0 0" fill="#FFFFFF"/><path d="m177.492188 95.785156c-3.769532 0-6.824219-3.054687-6.824219-6.824218v-54.613282c0-3.773437 3.054687-6.828125 6.824219-6.828125 3.773437 0 6.828124 3.054688 6.828124 6.828125v54.613282c0 3.769531-3.054687 6.824218-6.828124 6.824218zm0 0" fill="#FFFFFF"/><path d="m300.375 95.785156c-3.773438 0-6.828125-3.054687-6.828125-6.824218v-54.613282c0-3.773437 3.054687-6.828125 6.828125-6.828125 3.769531 0 6.824219 3.054688 6.824219 6.828125v54.613282c0 3.769531-3.054688 6.824218-6.824219 6.824218zm0 0" fill="#FFFFFF"/><path d="m232.105469 150.398438c-3.769531 0-6.824219-3.054688-6.824219-6.824219v-47.789063c0-3.769531 3.054688-6.824218 6.824219-6.824218 3.773437 0 6.828125 3.054687 6.828125 6.824218v47.789063c0 3.769531-3.054688 6.824219-6.828125 6.824219zm0 0" fill="#FFFFFF"/><path d="m157.011719 205.011719c-3.769531 0-6.824219-3.054688-6.824219-6.824219v-47.789062c0-3.769532 3.054688-6.824219 6.824219-6.824219 3.773437 0 6.828125 3.054687 6.828125 6.824219v47.789062c0 3.769531-3.054688 6.824219-6.828125 6.824219zm0 0" fill="#FFFFFF"/><path d="m293.546875 205.011719c-3.773437 0-6.828125-3.054688-6.828125-6.824219v-47.789062c0-3.769532 3.054688-6.824219 6.828125-6.824219s6.828125 3.054687 6.828125 6.824219v47.789062c0 3.769531-3.054688 6.824219-6.828125 6.824219zm0 0" fill="#FFFFFF"/><path d="m204.800781 259.625c-3.773437 0-6.828125-3.054688-6.828125-6.824219v-47.789062c0-3.769531 3.054688-6.824219 6.828125-6.824219 3.769531 0 6.824219 3.054688 6.824219 6.824219v47.789062c0 3.769531-3.054688 6.824219-6.824219 6.824219zm0 0" fill="#FFFFFF"/><path d="m327.679688 259.625c-3.769532 0-6.828126-3.054688-6.828126-6.824219v-47.789062c0-3.769531 3.058594-6.824219 6.828126-6.824219 3.773437 0 6.828124 3.054688 6.828124 6.824219v47.789062c0 3.769531-3.054687 6.824219-6.828124 6.824219zm0 0" fill="#FFFFFF"/><path d="m409.601562 368.851562h-402.773437c-3.773437 0-6.828125-3.054687-6.828125-6.824218v-354.988282c0-3.769531 3.054688-6.824218 6.828125-6.824218h102.398437c3.773438 0 6.828126 3.054687 6.828126 6.824218v245.761719h293.546874c3.769532 0 6.824219 3.054688 6.824219 6.824219v102.402344c0 3.769531-3.054687 6.824218-6.824219 6.824218zm-395.949218-13.652343h389.121094v-88.746094h-293.546876c-3.773437 0-6.828124-3.054687-6.828124-6.828125v-245.757812h-88.746094zm0 0" fill="#FFFFFF"/><path d="m122.878906 327.894531h-68.265625c-3.773437 0-6.828125-3.054687-6.828125-6.828125v-47.785156c0-3.773438 3.054688-6.828125 6.828125-6.828125 3.773438 0 6.828125 3.054687 6.828125 6.828125v40.957031h61.4375c3.773438 0 6.828125 3.058594 6.828125 6.828125 0 3.773438-3.054687 6.828125-6.828125 6.828125zm0 0" fill="#FFFFFF"/></svg>
