<?xml version="1.0" encoding="iso-8859-1"?>
<!-- Generator: Adobe Illustrator 19.0.0, SVG Export Plug-In . SVG Version: 6.00 Build 0)  -->
<svg xmlns="http://www.w3.org/2000/svg" xmlns:xlink="http://www.w3.org/1999/xlink" version="1.1" id="Capa_1" x="0px" y="0px" viewBox="0 0 512 512" style="enable-background:new 0 0 512 512;" xml:space="preserve" width="512px" height="512px">
<g>
	<g>
		<g>
			<path d="M255.758,227.624c0.084-0.485,0.125-0.976,0.121-1.468c0.004-0.481-0.035-0.961-0.117-1.434     c-0.134-0.772-0.376-1.521-0.719-2.225c-0.068-0.135-0.06-0.285-0.135-0.418c-0.048-0.084-0.131-0.128-0.181-0.21     c-0.503-0.855-1.157-1.613-1.929-2.237c-0.07-0.056-0.128-0.118-0.199-0.171c-0.297-0.3-0.618-0.575-0.958-0.824L204.8,192.327     v-68.39c-0.047-0.361-0.12-0.718-0.216-1.069c-0.056-0.567-0.169-1.127-0.336-1.672c-0.132-0.386-0.293-0.762-0.482-1.123     c-0.327-0.653-0.736-1.261-1.219-1.808c-0.114-0.126-0.181-0.283-0.301-0.402l-0.029-0.043l-0.044-0.029     c-0.559-0.556-1.192-1.031-1.881-1.413L25.283,20.162c-5.286-2.903-11.712-2.801-16.903,0.268C3.189,23.5,0.003,29.082,0,35.112     v271.1c0.001,3.082,1.664,5.923,4.35,7.433l136.392,76.72l0.017,0.013l0.025,0.01l0.1,0.056c0.356,0.175,0.723,0.323,1.1,0.445     c1.66,0.722,3.518,0.852,5.263,0.367c0.232-0.061,0.446-0.19,0.673-0.271c0.455-0.14,0.898-0.318,1.323-0.533l51.2-28.758     c0.289-0.216,0.563-0.452,0.821-0.705c0.49-0.338,0.942-0.727,1.35-1.161c0.655-0.852,1.201-1.783,1.623-2.771     c0.179-0.567,0.297-1.152,0.351-1.744c0.095-0.349,0.166-0.703,0.213-1.061v-25.981l46.842-26.31     c0.289-0.216,0.563-0.452,0.821-0.705c0.49-0.338,0.942-0.727,1.35-1.161c0.655-0.852,1.201-1.783,1.623-2.771     c0.179-0.567,0.297-1.152,0.351-1.744c0.095-0.349,0.166-0.703,0.214-1.061v-65.108c-0.052-0.464-0.144-0.922-0.276-1.369     C255.754,227.906,255.735,227.763,255.758,227.624z M17.067,35.112l161.558,88.825l-33.558,18.883l-128-72V35.112z      M187.733,138.395v39.818v14.115L153.6,211.499v-53.901L187.733,138.395z M187.733,349.26L153.6,368.429V309.1l34.133,19.172     V349.26z M187.733,308.699l-38.492-21.62c-0.137-0.078-0.294-0.071-0.434-0.141c-1.061-0.411-2.165-0.7-3.291-0.86     c-0.157-0.009-0.29-0.091-0.45-0.091c-0.359,0.047-0.714,0.119-1.063,0.214c-0.59,0.055-1.172,0.172-1.737,0.35     c-1.607,0.526-2.993,1.573-3.938,2.976c-0.253,0.256-0.488,0.53-0.704,0.818c-0.078,0.139-0.071,0.294-0.141,0.435     c-0.229,0.52-0.404,1.062-0.523,1.617c-0.169,0.545-0.282,1.106-0.338,1.674c-0.008,0.157-0.091,0.29-0.091,0.449v73.899     l-119.467-67.2V90.399l119.467,67.2v68.655c0,0.142,0.073,0.257,0.08,0.397c0.112,0.815,0.276,1.622,0.49,2.416     c0.134,0.361,0.293,0.713,0.478,1.051c0.023,0.044,0.019,0.093,0.044,0.136c0.062,0.112,0.158,0.19,0.226,0.299     c0.455,0.888,1.127,1.647,1.952,2.207c0.334,0.344,0.699,0.657,1.089,0.936l46.842,26.31V308.699z M196.267,245.226     l-33.931-19.059l33.931-19.059l33.931,19.059L196.267,245.226z M238.933,289.526L204.8,308.696v-48.689l34.133-19.172V289.526z" fill="#FFFFFF"/>
			<path d="M503.55,109.296c-5.223-3.096-11.706-3.154-16.983-0.15L285.95,221.971c-0.678,0.382-1.3,0.854-1.85,1.405l-0.009,0.01     c-0.67,0.7-1.215,1.51-1.613,2.393c-0.114,0.239-0.201,0.476-0.293,0.726c-0.318,0.846-0.498,1.738-0.532,2.641     c-0.004,0.094-0.054,0.172-0.054,0.267v68.267c0,3.232,1.826,6.187,4.717,7.633l46.483,23.242v23.583l-46.483,23.242     c-0.285,0.194-0.557,0.406-0.815,0.635c-0.389,0.223-0.76,0.478-1.107,0.763c-0.172,0.158-0.328,0.311-0.486,0.482     c-0.43,0.674-0.9,1.32-1.408,1.936c-0.042,0.082-0.031,0.172-0.069,0.255c-0.087,0.187-0.154,0.372-0.227,0.566     c-0.218,0.906-0.402,1.82-0.552,2.74c-0.003,0.09-0.052,0.165-0.052,0.256v76.8c0,3.232,1.826,6.187,4.717,7.633l51.2,25.6     c0.115,0.057,0.246,0.034,0.362,0.085c1.078,0.509,2.252,0.786,3.444,0.812l0.011,0.003l0.004-0.001l0.004,0.001     c0.726-0.007,1.448-0.107,2.148-0.297c0.235-0.061,0.452-0.171,0.681-0.253c0.368-0.108,0.729-0.242,1.079-0.4l162.133-83.708     c0.328-0.225,0.638-0.475,0.929-0.746c0.512-0.327,0.986-0.708,1.416-1.138c0.336-0.408,0.632-0.847,0.883-1.311     c0.315-0.457,0.582-0.945,0.797-1.457c0.178-0.564,0.295-1.145,0.35-1.733c0.111-0.393,0.192-0.794,0.242-1.199V124.021     C512.033,117.951,508.807,112.33,503.55,109.296z M298.667,292.404v-49.183l34.133,17.067v49.18L298.667,292.404z M332.8,471.604     l-34.133-17.067v-57.717l34.133,17.067V471.604z M341.242,399.025l-32.025-16.012l32.117-16.058l31.248,15.621L341.242,399.025z      M349.867,352.137V328.44L384,310.518v58.683L349.867,352.137z M494.933,396.504l-145.067,74.897v-57.628l45.717-23.96     l1.192-0.683c0.272-0.208,0.53-0.434,0.773-0.676c0.495-0.347,0.951-0.746,1.36-1.191c1.122-1.243,1.806-2.819,1.948-4.488     c0.093-0.343,0.164-0.692,0.21-1.045v-85.333c0-0.117-0.063-0.215-0.067-0.331c-0.175-1.121-0.446-2.225-0.811-3.3     c-0.051-0.109-0.042-0.228-0.098-0.336c-0.225-0.321-0.473-0.625-0.742-0.91c-0.33-0.507-0.713-0.978-1.143-1.403     c-0.867-0.645-1.795-1.204-2.771-1.668c-0.557-0.174-1.13-0.29-1.71-0.345c-0.391-0.11-0.789-0.19-1.192-0.24     c-0.123,0-0.224,0.065-0.346,0.07c-1.116,0.177-2.215,0.447-3.285,0.808c-0.108,0.051-0.227,0.041-0.335,0.097l-38.7,20.321     v-48.986l145.067-76.045V396.504z M494.933,164.862l-153.692,80.567l-32.917-16.458l186.608-104.992V164.862z" fill="#FFFFFF"/>
		</g>
	</g>
</g>
<g>
</g>
<g>
</g>
<g>
</g>
<g>
</g>
<g>
</g>
<g>
</g>
<g>
</g>
<g>
</g>
<g>
</g>
<g>
</g>
<g>
</g>
<g>
</g>
<g>
</g>
<g>
</g>
<g>
</g>
</svg>
