<?xml version="1.0" encoding="iso-8859-1"?>
<!-- Generator: Adobe Illustrator 19.0.0, SVG Export Plug-In . SVG Version: 6.00 Build 0)  -->
<svg xmlns="http://www.w3.org/2000/svg" xmlns:xlink="http://www.w3.org/1999/xlink" version="1.1" id="Capa_1" x="0px" y="0px" viewBox="0 0 512 512" style="enable-background:new 0 0 512 512;" xml:space="preserve" width="512px" height="512px">
<g>
	<g>
		<path d="M480,384h-53.333c-22.702,0-43.309-8.249-59.762-21.471C447.057,360.263,512,293.746,512,213.333    C512,130.99,445.01,64,362.667,64c-16.001,0-27.271,2.47-35.173,5.333C321.147,53.721,305.867,42.667,288,42.667    c-12.805,0-24.174,5.784-32,14.741c-7.826-8.957-19.195-14.741-32-14.741c-17.845,0-33.115,11.029-39.475,26.609    C176.633,66.423,165.418,64,149.333,64C66.99,64,0,130.99,0,213.333s66.99,149.333,149.333,149.333    c16.001,0,27.271-2.47,35.173-5.333C190.853,372.945,206.133,384,224,384c16.07,0,29.922-9.03,37.197-22.185    c28.337,63.267,91.779,107.518,165.47,107.518H480c5.896,0,10.667-4.771,10.667-10.667v-64C490.667,388.771,485.896,384,480,384z     M181.333,197.43c-5.995-0.547-11.96-1.388-17.802-2.846c-8.615-2.156-12.729-2.49-14.26-2.583    c-11.76,0-21.323,9.573-21.323,21.333c0,11.563,9.646,21.333,21.052,21.333c0.427,0,4.49-0.073,14.5-2.573    c5.863-1.466,11.836-2.307,17.833-2.855v43.322c-2.492,0.361-5.036,0.31-7.479,0.919c-10.24,2.563-18.5,3.854-24.573,3.854    c-35.292,0-64-28.708-64-64c0-35.292,28.708-64,64-64c6.073,0,14.333,1.292,24.573,3.844c2.443,0.615,4.987,0.561,7.479,0.923    V197.43z M181.333,132.766c-0.764-0.156-1.555-0.098-2.313-0.286c-11.927-2.969-21.927-4.479-29.74-4.479    c-47.052,0-85.333,38.281-85.333,85.333c0,47.052,38.281,85.333,85.333,85.333c7.813,0,17.813-1.51,29.74-4.49    c0.758-0.188,1.548-0.129,2.313-0.284v41.65c-4.629,2.311-14.421,5.79-32,5.79c-70.583,0-128-57.417-128-128    c0-70.583,57.417-128,128-128c17.874,0,27.564,3.438,32,5.641V132.766z M245.333,341.333c0,11.76-9.573,21.333-21.333,21.333    s-21.333-9.573-21.333-21.333v-256C202.667,73.573,212.24,64,224,64s21.333,9.573,21.333,21.333V341.333z M330.667,91.124    c4.629-2.311,14.421-5.79,32-5.79c70.583,0,128,57.417,128,128c0,69.427-56.458,126.844-125.771,127.979l-17.98,0.016    c-9.194-13.706-14.573-29.996-15.654-47.436c0.587,0.095,1.228,0.185,1.665,0.296c11.927,2.969,21.927,4.479,29.74,4.479    c47.052,0,85.333-38.281,85.333-85.333C448,166.281,409.719,128,362.667,128c-7.813,0-17.813,1.51-29.74,4.49    c-0.74,0.184-1.514,0.125-2.26,0.277V91.124z M330.667,229.24c5.979,0.549,11.931,1.389,17.771,2.844    c10.021,2.51,14.083,2.583,14.51,2.583c11.406,0,21.052-9.771,21.052-21.333c0-11.729-9.521-21.281-22.229-21.281    c-0.042,0-0.073,0-0.104,0c-0.521,0.042-4.635,0.375-13.25,2.531c-5.826,1.454-11.773,2.294-17.75,2.842V154.1    c2.474-0.359,5.001-0.307,7.427-0.913c10.24-2.563,18.5-3.854,24.573-3.854c35.292,0,64,28.708,64,64c0,35.292-28.708,64-64,64    c-6.073,0-14.333-1.292-24.563-3.844c-1.724-0.435-4.517-0.818-7.438-1.138V229.24z M363.292,213.323    c0.125-0.01,0.219-0.021,0.271-0.021v0.052C363.5,213.344,363.406,213.344,363.292,213.323z M469.333,448h-42.667    c-88.229,0-160-71.771-160-160V85.333C266.667,73.573,276.24,64,288,64s21.333,9.573,21.333,21.333V288    c0,64.698,52.635,117.333,117.333,117.333h42.667V448z" fill="#FFFFFF"/>
	</g>
</g>
<g>
</g>
<g>
</g>
<g>
</g>
<g>
</g>
<g>
</g>
<g>
</g>
<g>
</g>
<g>
</g>
<g>
</g>
<g>
</g>
<g>
</g>
<g>
</g>
<g>
</g>
<g>
</g>
<g>
</g>
</svg>
