<?xml version="1.0" encoding="utf-8"?>
<!-- Generator: Adobe Illustrator 21.1.0, SVG Export Plug-In . SVG Version: 6.00 Build 0)  -->
<svg version="1.1" id="Слой_1" xmlns="http://www.w3.org/2000/svg" xmlns:xlink="http://www.w3.org/1999/xlink" x="0px" y="0px"
	 viewBox="0 0 50 50" style="enable-background:new 0 0 50 50;" xml:space="preserve">
<g>
	<path d="M13.2,33.1C7.1,33.1,2,28,2,21.9C2,17.1,8.8,7.2,12.8,2.2c0.1-0.2,0.3-0.3,0.5-0.3c0.2,0,0.4,0.1,0.5,0.3
		c4,5.1,10.8,14.9,10.8,19.7c0,3-1.2,5.9-3.3,7.9C19.1,32,16.2,33.1,13.2,33.1z M12.7,4.2c-1.6,2.1-9.5,12.9-9.5,17.7
		c0,5.5,4.5,10,10,10s10-4.5,10-10c0-4.8-7.9-15.5-9.5-17.7l-0.5-0.7L12.7,4.2z" fill="#FFFFFF"/>
	<path d="M13.2,28c-0.3,0-0.7-0.3-0.7-0.6c0-0.3,0.3-0.7,0.7-0.7c2.7,0,4.9-2.2,4.9-4.9c0-0.3,0.3-0.7,0.6-0.7s0.7,0.3,0.7,0.7
		C19.4,25.3,16.6,28,13.2,28z" fill="#FFFFFF"/>
</g>
<g>
	<path d="M36.8,48c-6.2,0-11.2-5.1-11.2-11.2c0-4.8,6.8-14.7,10.8-19.7c0.1-0.2,0.3-0.3,0.5-0.3c0.2,0,0.4,0.1,0.5,0.3
		c4,5.1,10.8,14.9,10.8,19.7c0,3-1.2,5.9-3.3,7.9C42.6,46.8,39.7,48,36.8,48z M36.2,19.1c-1.6,2.1-9.5,12.9-9.5,17.7
		c0,5.5,4.5,10,10,10s10-4.5,10-10c0-4.8-7.9-15.5-9.5-17.7l-0.5-0.7L36.2,19.1z" fill="#FFFFFF"/>
	<path d="M36.8,42.9c-0.3,0-0.7-0.3-0.7-0.6c0-0.3,0.3-0.7,0.7-0.7c2.7,0,4.9-2.2,4.9-4.9c0-0.3,0.3-0.7,0.6-0.7
		c0.3,0,0.7,0.3,0.7,0.7C42.9,40.1,40.1,42.9,36.8,42.9z" fill="#FFFFFF"/>
</g>
</svg>
