<?xml version="1.0" encoding="utf-8"?>
<!-- Generator: Adobe Illustrator 23.0.1, SVG Export Plug-In . SVG Version: 6.00 Build 0)  -->
<svg version="1.1" id="Слой_1" xmlns="http://www.w3.org/2000/svg" xmlns:xlink="http://www.w3.org/1999/xlink" x="0px" y="0px"
	 viewBox="0 0 226 156" style="enable-background:new 0 0 226 156;" xml:space="preserve">
<style type="text/css">
	.st0{fill:#E58E31;}
	.st1{fill:#ffffff;}
	.st2{fill-rule:evenodd;clip-rule:evenodd;fill:#E58E31;}
	.st3{fill-rule:evenodd;clip-rule:evenodd;fill:#ffffff;}
	.st4{fill:#ffffff;}
</style>
<g>
	<g>
		<path class="st0" d="M1.54,142.56c0-1.14-0.02-2.07-0.09-2.98H3.2l0.09,1.77h0.07c0.61-1.04,1.64-2.02,3.45-2.02
			c1.5,0,2.64,0.91,3.11,2.2h0.05c0.34-0.61,0.77-1.09,1.23-1.43c0.66-0.5,1.39-0.77,2.43-0.77c1.45,0,3.61,0.95,3.61,4.77v6.48
			h-1.95v-6.23c0-2.11-0.77-3.38-2.39-3.38c-1.14,0-2.02,0.84-2.36,1.82c-0.09,0.27-0.16,0.64-0.16,1v6.79H8.42v-6.59
			c0-1.75-0.77-3.02-2.29-3.02c-1.25,0-2.16,1-2.48,2c-0.11,0.29-0.16,0.64-0.16,0.98v6.63H1.54V142.56z"/>
		<path class="st0" d="M21.6,145.44c0.05,2.7,1.77,3.82,3.77,3.82c1.43,0,2.29-0.25,3.04-0.57l0.34,1.43
			c-0.7,0.32-1.91,0.68-3.66,0.68c-3.38,0-5.41-2.23-5.41-5.54s1.95-5.93,5.16-5.93c3.59,0,4.54,3.16,4.54,5.18
			c0,0.41-0.05,0.73-0.07,0.93H21.6z M27.47,144.01c0.02-1.27-0.52-3.25-2.77-3.25c-2.02,0-2.91,1.86-3.07,3.25H27.47z"/>
		<path class="st0" d="M34.28,136.42v3.16h2.86v1.52h-2.86v5.93c0,1.36,0.39,2.14,1.5,2.14c0.52,0,0.91-0.07,1.16-0.14l0.09,1.5
			c-0.39,0.16-1,0.27-1.77,0.27c-0.93,0-1.68-0.3-2.16-0.84c-0.57-0.59-0.77-1.57-0.77-2.86v-6h-1.7v-1.52h1.7v-2.63L34.28,136.42z"
			/>
		<path class="st0" d="M45.49,150.58l-0.16-1.39h-0.07c-0.61,0.86-1.79,1.64-3.36,1.64c-2.23,0-3.36-1.57-3.36-3.16
			c0-2.66,2.36-4.11,6.61-4.09v-0.23c0-0.91-0.25-2.54-2.5-2.54c-1.02,0-2.09,0.32-2.86,0.82l-0.45-1.32
			c0.91-0.59,2.23-0.98,3.61-0.98c3.36,0,4.18,2.29,4.18,4.5v4.11c0,0.95,0.04,1.89,0.18,2.64H45.49z M45.19,144.97
			c-2.18-0.04-4.66,0.34-4.66,2.48c0,1.29,0.86,1.91,1.89,1.91c1.43,0,2.34-0.91,2.66-1.84c0.07-0.2,0.11-0.43,0.11-0.64V144.97z"/>
		<path class="st0" d="M50.35,134.45h2v16.13h-2V134.45z"/>
		<path class="st0" d="M56.51,139.58l1.45,5.59c0.32,1.23,0.61,2.36,0.82,3.5h0.07c0.25-1.11,0.61-2.29,0.98-3.48l1.79-5.61h1.68
			l1.7,5.5c0.41,1.32,0.73,2.48,0.98,3.59h0.07c0.18-1.11,0.48-2.27,0.84-3.57l1.57-5.52h1.98l-3.54,11h-1.82l-1.68-5.25
			c-0.39-1.23-0.7-2.32-0.98-3.61h-0.05c-0.27,1.32-0.61,2.45-1,3.64l-1.77,5.23h-1.82l-3.32-11H56.51z"/>
		<path class="st0" d="M82.16,144.99c0,4.07-2.82,5.84-5.48,5.84c-2.98,0-5.27-2.18-5.27-5.66c0-3.68,2.41-5.84,5.45-5.84
			C80.03,139.33,82.16,141.63,82.16,144.99z M73.44,145.1c0,2.41,1.39,4.23,3.34,4.23c1.91,0,3.34-1.79,3.34-4.27
			c0-1.86-0.93-4.23-3.29-4.23C74.46,140.83,73.44,143.01,73.44,145.1z"/>
		<path class="st0" d="M84.69,143.01c0-1.3-0.02-2.41-0.09-3.43h1.75l0.07,2.16h0.09c0.5-1.48,1.7-2.41,3.04-2.41
			c0.23,0,0.39,0.02,0.57,0.07v1.89c-0.21-0.04-0.41-0.07-0.68-0.07c-1.41,0-2.41,1.07-2.68,2.57c-0.05,0.27-0.09,0.59-0.09,0.93
			v5.86h-1.98V143.01z"/>
		<path class="st0" d="M94.19,144.62h0.05c0.27-0.39,0.66-0.86,0.98-1.25l3.23-3.79h2.41l-4.25,4.52l4.84,6.48H99l-3.79-5.27
			l-1.02,1.14v4.13h-1.98v-16.13h1.98V144.62z"/>
		<path class="st0" d="M105.48,136.49c0.02,0.68-0.48,1.23-1.27,1.23c-0.71,0-1.21-0.55-1.21-1.23c0-0.7,0.52-1.25,1.25-1.25
			C105,135.24,105.48,135.79,105.48,136.49z M103.25,150.58v-11h2v11H103.25z"/>
		<path class="st0" d="M108.57,142.56c0-1.14-0.02-2.07-0.09-2.98h1.77l0.11,1.82h0.05c0.54-1.05,1.82-2.07,3.63-2.07
			c1.52,0,3.89,0.91,3.89,4.68v6.57h-2v-6.34c0-1.77-0.66-3.25-2.54-3.25c-1.32,0-2.34,0.93-2.68,2.04
			c-0.09,0.25-0.14,0.59-0.14,0.93v6.61h-2V142.56z"/>
		<path class="st0" d="M130.66,139.58c-0.04,0.8-0.09,1.68-0.09,3.02v6.38c0,2.52-0.5,4.07-1.57,5.02c-1.07,1-2.61,1.32-4,1.32
			c-1.32,0-2.77-0.32-3.66-0.91l0.5-1.52c0.73,0.45,1.86,0.86,3.23,0.86c2.04,0,3.54-1.07,3.54-3.84v-1.23h-0.04
			c-0.61,1.02-1.79,1.84-3.5,1.84c-2.73,0-4.68-2.32-4.68-5.36c0-3.73,2.43-5.84,4.95-5.84c1.91,0,2.95,1,3.43,1.91h0.05l0.09-1.66
			H130.66z M128.59,143.92c0-0.34-0.02-0.64-0.11-0.91c-0.36-1.16-1.34-2.11-2.79-2.11c-1.91,0-3.27,1.61-3.27,4.16
			c0,2.16,1.09,3.95,3.25,3.95c1.23,0,2.34-0.77,2.77-2.04c0.11-0.34,0.16-0.73,0.16-1.07V143.92z"/>
		<path class="st0" d="M138.43,148.53c0.59,0.39,1.64,0.79,2.64,0.79c1.45,0,2.14-0.73,2.14-1.64c0-0.95-0.57-1.48-2.04-2.02
			c-1.98-0.71-2.91-1.79-2.91-3.11c0-1.77,1.43-3.23,3.79-3.23c1.11,0,2.09,0.32,2.7,0.68l-0.5,1.45c-0.43-0.27-1.23-0.64-2.25-0.64
			c-1.18,0-1.84,0.68-1.84,1.5c0,0.91,0.66,1.32,2.09,1.86c1.91,0.73,2.89,1.68,2.89,3.32c0,1.93-1.5,3.29-4.11,3.29
			c-1.2,0-2.32-0.3-3.09-0.75L138.43,148.53z"/>
		<path class="st0" d="M148.43,139.58l2.41,6.5c0.25,0.73,0.52,1.59,0.7,2.25h0.05c0.2-0.66,0.43-1.5,0.7-2.29l2.18-6.45h2.11
			l-3,7.84c-1.43,3.77-2.41,5.7-3.77,6.88c-0.98,0.86-1.95,1.2-2.45,1.29l-0.5-1.68c0.5-0.16,1.16-0.48,1.75-0.98
			c0.54-0.43,1.23-1.2,1.68-2.23c0.09-0.21,0.16-0.36,0.16-0.48s-0.05-0.27-0.14-0.52l-4.07-10.13H148.43z"/>
		<path class="st0" d="M158,148.53c0.59,0.39,1.64,0.79,2.64,0.79c1.45,0,2.14-0.73,2.14-1.64c0-0.95-0.57-1.48-2.04-2.02
			c-1.98-0.71-2.91-1.79-2.91-3.11c0-1.77,1.43-3.23,3.79-3.23c1.11,0,2.09,0.32,2.7,0.68l-0.5,1.45c-0.43-0.27-1.23-0.64-2.25-0.64
			c-1.18,0-1.84,0.68-1.84,1.5c0,0.91,0.66,1.32,2.09,1.86c1.91,0.73,2.89,1.68,2.89,3.32c0,1.93-1.5,3.29-4.11,3.29
			c-1.2,0-2.32-0.3-3.09-0.75L158,148.53z"/>
		<path class="st0" d="M169.68,136.42v3.16h2.86v1.52h-2.86v5.93c0,1.36,0.39,2.14,1.5,2.14c0.52,0,0.91-0.07,1.16-0.14l0.09,1.5
			c-0.39,0.16-1,0.27-1.77,0.27c-0.93,0-1.68-0.3-2.16-0.84c-0.57-0.59-0.77-1.57-0.77-2.86v-6h-1.7v-1.52h1.7v-2.63L169.68,136.42z
			"/>
		<path class="st0" d="M175.77,145.44c0.05,2.7,1.77,3.82,3.77,3.82c1.43,0,2.29-0.25,3.04-0.57l0.34,1.43
			c-0.7,0.32-1.91,0.68-3.66,0.68c-3.38,0-5.41-2.23-5.41-5.54s1.95-5.93,5.16-5.93c3.59,0,4.54,3.16,4.54,5.18
			c0,0.41-0.05,0.73-0.07,0.93H175.77z M181.63,144.01c0.02-1.27-0.52-3.25-2.77-3.25c-2.02,0-2.91,1.86-3.07,3.25H181.63z"/>
		<path class="st0" d="M186.04,142.56c0-1.14-0.02-2.07-0.09-2.98h1.75l0.09,1.77h0.07c0.61-1.04,1.64-2.02,3.45-2.02
			c1.5,0,2.64,0.91,3.11,2.2h0.05c0.34-0.61,0.77-1.09,1.23-1.43c0.66-0.5,1.39-0.77,2.43-0.77c1.45,0,3.61,0.95,3.61,4.77v6.48
			h-1.95v-6.23c0-2.11-0.77-3.38-2.39-3.38c-1.14,0-2.02,0.84-2.36,1.82c-0.09,0.27-0.16,0.64-0.16,1v6.79h-1.95v-6.59
			c0-1.75-0.77-3.02-2.29-3.02c-1.25,0-2.16,1-2.48,2c-0.11,0.29-0.16,0.64-0.16,0.98v6.63h-1.95V142.56z"/>
		<path class="st0" d="M204.72,148.53c0.59,0.39,1.64,0.79,2.64,0.79c1.45,0,2.14-0.73,2.14-1.64c0-0.95-0.57-1.48-2.04-2.02
			c-1.98-0.71-2.91-1.79-2.91-3.11c0-1.77,1.43-3.23,3.79-3.23c1.11,0,2.09,0.32,2.7,0.68l-0.5,1.45c-0.43-0.27-1.23-0.64-2.25-0.64
			c-1.18,0-1.84,0.68-1.84,1.5c0,0.91,0.66,1.32,2.09,1.86c1.91,0.73,2.89,1.68,2.89,3.32c0,1.93-1.5,3.29-4.11,3.29
			c-1.2,0-2.32-0.3-3.09-0.75L204.72,148.53z"/>
	</g>
	<g>
		<path class="st1" d="M1.49,97.62c2.51-0.38,5.49-0.66,8.76-0.66c5.92,0,10.14,1.37,12.93,3.98c2.84,2.6,4.5,6.3,4.5,11.46
			c0,5.21-1.61,9.47-4.59,12.41c-2.98,2.98-7.91,4.59-14.12,4.59c-2.94,0-5.4-0.14-7.48-0.38V97.62z M5.61,125.85
			c1.04,0.19,2.56,0.24,4.17,0.24c8.81,0,13.59-4.93,13.59-13.55c0.05-7.53-4.22-12.32-12.93-12.32c-2.13,0-3.74,0.19-4.83,0.43
			V125.85z"/>
		<path class="st1" d="M49.57,114.15H37.16v11.51h13.83v3.46H33.04V97.2h17.24v3.46H37.16v10.09h12.41V114.15z"/>
		<path class="st1" d="M61.98,129.12l-8.1-31.92h4.36l3.79,16.15c0.95,3.98,1.8,7.96,2.37,11.04h0.09
			c0.52-3.17,1.52-6.96,2.61-11.08l4.26-16.1h4.31l3.88,16.2c0.9,3.79,1.75,7.58,2.23,10.94h0.09c0.66-3.51,1.56-7.06,2.56-11.04
			l4.22-16.1h4.22l-9.05,31.92H79.5l-4.03-16.63c-0.99-4.07-1.66-7.2-2.08-10.42H73.3c-0.57,3.17-1.28,6.3-2.46,10.42l-4.55,16.63
			H61.98z"/>
		<path class="st1" d="M123.74,115.1c-0.24-4.45-0.52-9.8-0.47-13.78h-0.14c-1.09,3.74-2.42,7.72-4.03,12.13l-5.64,15.49h-3.13
			l-5.16-15.2c-1.52-4.5-2.79-8.62-3.69-12.41h-0.09c-0.09,3.98-0.33,9.33-0.62,14.11l-0.85,13.69h-3.93l2.23-31.92h5.26l5.45,15.44
			c1.33,3.93,2.42,7.44,3.22,10.75h0.14c0.81-3.22,1.94-6.73,3.36-10.75l5.68-15.44h5.26l1.99,31.92h-4.03L123.74,115.1z"/>
		<path class="st1" d="M139.6,119.08l-3.32,10.04h-4.26l10.85-31.92h4.97l10.89,31.92h-4.41l-3.41-10.04H139.6z M150.07,115.86
			l-3.13-9.19c-0.71-2.08-1.18-3.98-1.66-5.83h-0.09c-0.47,1.89-0.99,3.84-1.61,5.78l-3.13,9.24H150.07z"/>
		<path class="st1" d="M163.43,97.62c2.08-0.43,5.07-0.66,7.91-0.66c4.41,0,7.25,0.81,9.24,2.6c1.61,1.42,2.51,3.6,2.51,6.06
			c0,4.22-2.65,7.01-6.02,8.15v0.14c2.46,0.85,3.93,3.13,4.69,6.44c1.04,4.45,1.8,7.53,2.46,8.76h-4.26
			c-0.52-0.9-1.23-3.65-2.13-7.63c-0.95-4.4-2.65-6.06-6.39-6.2h-3.88v13.83h-4.12V97.62z M167.55,112.16h4.22
			c4.41,0,7.2-2.42,7.2-6.06c0-4.12-2.98-5.92-7.34-5.97c-1.99,0-3.41,0.19-4.07,0.38V112.16z"/>
		<path class="st1" d="M188.91,97.2h4.12v15.39h0.14c0.85-1.23,1.71-2.37,2.51-3.41l9.76-11.98h5.12L199,110.74l12.46,18.38h-4.88
			l-10.52-15.68l-3.03,3.5v12.17h-4.12V97.2z"/>
	</g>
	<g>
		<path class="st1" d="M224.55,93.96c0,3.05-2.39,5.44-5.51,5.44c-3.08,0-5.54-2.39-5.54-5.44c0-2.98,2.46-5.38,5.54-5.38
			C222.16,88.59,224.55,90.98,224.55,93.96z M214.89,93.96c0,2.39,1.77,4.29,4.2,4.29c2.36,0,4.1-1.9,4.1-4.26
			c0-2.39-1.74-4.33-4.13-4.33C216.66,89.67,214.89,91.6,214.89,93.96z M218.2,96.78h-1.25v-5.38c0.49-0.1,1.18-0.16,2.07-0.16
			c1.01,0,1.47,0.16,1.87,0.39c0.29,0.23,0.52,0.66,0.52,1.18c0,0.59-0.46,1.05-1.11,1.25v0.07c0.52,0.2,0.82,0.59,0.98,1.31
			c0.17,0.82,0.26,1.15,0.39,1.34h-1.35c-0.16-0.2-0.26-0.69-0.43-1.31c-0.1-0.59-0.42-0.85-1.11-0.85h-0.59V96.78z M218.23,93.73
			h0.59c0.69,0,1.25-0.23,1.25-0.79c0-0.49-0.36-0.82-1.15-0.82c-0.33,0-0.56,0.03-0.69,0.07V93.73z"/>
	</g>
	<g>
		<path class="st2" d="M74.57,35.06c5.9,1.31,11.69,14.1,15.84,24.72l9.15-6.43c9.45-21.03,25.99-38.64,39.08-50.24L137.08,1
			c-17.02,9.77-35.49,31.72-42.71,43.24c-2.48-4.43-6.06-12.85-11.01-14.44C78.34,30.93,75.92,33.24,74.57,35.06"/>
		<path class="st3" d="M138.12,54.53c-5.9-1.31-11.69-14.09-15.84-24.72l-9.14,6.43c-9.46,21.03-25.99,38.64-39.09,50.24l1.58,2.11
			c17.02-9.77,35.49-31.72,42.7-43.24c2.5,4.43,6.06,12.85,11.01,14.44C134.36,58.65,136.77,56.35,138.12,54.53"/>
		<g>
			<path class="st4" d="M84,68.29H70.72c-3.95,0-7.16-3.21-7.16-7.17V20.99c0-3.95,3.21-7.17,7.16-7.17h39.78l1.7-1.7H70.72
				c-4.89,0-8.86,3.98-8.86,8.86v40.14c0,4.89,3.98,8.86,8.86,8.86H82.3L84,68.29z"/>
		</g>
		<g>
			<path class="st0" d="M128.95,21.97h13.29c3.95,0,7.16,3.21,7.16,7.17v40.14c0,3.95-3.21,7.17-7.16,7.17h-39.78l-1.7,1.7h41.48
				c4.89,0,8.86-3.98,8.86-8.86V29.13c0-4.89-3.98-8.86-8.86-8.86h-11.59L128.95,21.97z"/>
		</g>
	</g>
</g>
</svg>
