<?xml version="1.0" encoding="utf-8"?>
<!-- Generator: Adobe Illustrator 21.1.0, SVG Export Plug-In . SVG Version: 6.00 Build 0)  -->
<svg version="1.1" id="Слой_1" xmlns="http://www.w3.org/2000/svg" xmlns:xlink="http://www.w3.org/1999/xlink" x="0px" y="0px"
	 viewBox="0 0 335 88" style="enable-background:new 0 0 335 88;" xml:space="preserve">
<style type="text/css">
	.st0{fill:#6AB5D4;}
	.st1{fill:#FFFFFF;}
	.st2{fill-rule:evenodd;clip-rule:evenodd;fill:#6CB6D3;}
	.st3{fill-rule:evenodd;clip-rule:evenodd;fill:#FFFFFF;}
	.st4{fill:#6CB6D3;}
</style>
<g>
	<g>
		<g>
			<path class="st0" d="M120.9,62.1V71l1.1,0l-0.1,4.7h-1.5l-0.1-3.3h-7.1l-0.1,3.3h-1.5l-0.1-4.7l0.9,0c0.4-0.7,0.8-1.4,1-2.1
				c0.4-1.3,0.6-2.7,0.6-4.1v-2.7H120.9z M115.7,65.2c0,1.4-0.2,2.7-0.5,3.8c-0.2,0.7-0.5,1.3-0.8,1.9h4.8v-7.5h-3.4V65.2z"/>
			<path class="st0" d="M125.2,67.6c0,2.5,1.7,3.6,3.5,3.6c1.3,0,2.2-0.2,2.9-0.5l0.3,1.3c-0.7,0.3-1.8,0.6-3.4,0.6
				c-3.2,0-5.1-2.1-5.1-5.2s1.8-5.6,4.8-5.6c3.4,0,4.3,3,4.3,4.9c0,0.4,0,0.7-0.1,0.9H125.2z M130.7,66.3c0-1.2-0.5-3-2.6-3
				c-1.9,0-2.7,1.7-2.9,3H130.7z"/>
			<path class="st0" d="M141,57.3v4.6c3,0.2,5.2,2.1,5.2,5.3c0,3.4-2.3,5.2-5.2,5.4v4h-1.7v-4c-3-0.2-5.2-2.1-5.2-5.3
				c0-3.4,2.3-5.2,5.2-5.4v-4.6H141z M139.3,63.2c-2.1,0.3-3.3,2-3.3,4.1c0,2.1,1.3,3.8,3.3,4V63.2z M141,71.3
				c2.1-0.3,3.3-2,3.3-4.1c0-2.1-1.3-3.7-3.3-4V71.3z"/>
			<path class="st0" d="M157.9,67.2c0,3.8-2.6,5.5-5.1,5.5c-2.8,0-4.9-2-4.9-5.3c0-3.5,2.3-5.5,5.1-5.5
				C155.9,61.9,157.9,64,157.9,67.2z M149.7,67.3c0,2.3,1.3,4,3.1,4c1.8,0,3.1-1.7,3.1-4c0-1.7-0.9-4-3.1-4
				C150.7,63.3,149.7,65.3,149.7,67.3z"/>
			<path class="st0" d="M160.3,65.5c0-1.3,0-2.4-0.1-3.4h1.7l0.1,1.8h0c0.8-1.3,2-2,3.7-2c2.5,0,4.4,2.1,4.4,5.2
				c0,3.7-2.3,5.5-4.7,5.5c-1.4,0-2.6-0.6-3.2-1.6h0v5.6h-1.9V65.5z M162.1,68.2c0,0.3,0,0.5,0.1,0.8c0.3,1.3,1.5,2.2,2.8,2.2
				c2,0,3.1-1.6,3.1-4c0-2.1-1.1-3.8-3.1-3.8c-1.3,0-2.5,0.9-2.8,2.3c-0.1,0.2-0.1,0.5-0.1,0.8V68.2z"/>
			<path class="st0" d="M172.5,62.1h2.3l1.9,5.2c0.3,0.8,0.7,2,0.9,2.8h0c0.2-0.8,0.8-2.4,1.2-3.5l1.7-4.5h2.3l0.7,10.3h-1.8
				l-0.2-4.9c-0.1-1.1-0.1-2.4-0.2-3.7h-0.1c-0.3,0.9-0.6,1.8-1.1,3.3l-2,5.2h-1.4l-1.8-5.1c-0.3-1-0.8-2.5-1-3.4h-0.1
				c0,1.2-0.1,2.6-0.2,3.7l-0.3,4.9h-1.7L172.5,62.1z"/>
			<path class="st0" d="M191.7,72.4l-0.1-1.3h-0.1c-0.6,0.8-1.7,1.5-3.2,1.5c-2.1,0-3.2-1.5-3.2-3c0-2.5,2.2-3.9,6.2-3.8v-0.2
				c0-0.9-0.2-2.4-2.3-2.4c-1,0-2,0.3-2.7,0.8l-0.4-1.2c0.9-0.6,2.1-0.9,3.4-0.9c3.2,0,3.9,2.2,3.9,4.2v3.9c0,0.9,0,1.8,0.2,2.5
				H191.7z M191.4,67.1c-2,0-4.4,0.3-4.4,2.3c0,1.2,0.8,1.8,1.8,1.8c1.3,0,2.2-0.9,2.5-1.7c0.1-0.2,0.1-0.4,0.1-0.6V67.1z"/>
			<path class="st0" d="M198.1,62.1v8.8h4.8v-8.8h1.9V71l1.1,0l-0.1,4.7h-1.4l-0.1-3.3h-7.9V62.1H198.1z"/>
			<path class="st0" d="M209.7,62.1v4.3c0,1.6,0,2.7-0.1,4.1l0.1,0c0.6-1.3,1-2,1.7-3.2l3.2-5.3h2.2v10.3h-1.8V68
				c0-1.7,0-2.6,0.1-4.2H215c-0.7,1.3-1.1,2.2-1.7,3.2c-1,1.6-2.1,3.6-3.2,5.4h-2.2V62.1H209.7z"/>
			<path class="st0" d="M229.1,67.2c0,3.8-2.6,5.5-5.1,5.5c-2.8,0-4.9-2-4.9-5.3c0-3.5,2.3-5.5,5.1-5.5
				C227.1,61.9,229.1,64,229.1,67.2z M220.9,67.3c0,2.3,1.3,4,3.1,4c1.8,0,3.1-1.7,3.1-4c0-1.7-0.9-4-3.1-4
				C221.9,63.3,220.9,65.3,220.9,67.3z"/>
			<path class="st0" d="M233.3,62.1v4.2h4.9v-4.2h1.9v10.3h-1.9v-4.7h-4.9v4.7h-1.9V62.1H233.3z"/>
			<path class="st0" d="M244.9,62.1v4.2h4.9v-4.2h1.9v10.3h-1.9v-4.7h-4.9v4.7H243V62.1H244.9z"/>
			<path class="st0" d="M256.5,62.1v3.5c0.4-0.1,1-0.1,1.7-0.1c2.2,0,4.5,0.9,4.5,3.5c0,1.1-0.4,1.8-1.1,2.4c-1.1,1-2.8,1.2-4.2,1.2
				c-1,0-2-0.1-2.8-0.1V62.1H256.5z M256.5,71.1c0.4,0,0.8,0.1,1.3,0.1c1.4,0,3-0.6,3-2.2c0-1.7-1.5-2.2-2.9-2.2c-0.5,0-1,0-1.4,0.1
				V71.1z M265.8,62.1v10.3H264V62.1H265.8z"/>
			<path class="st0" d="M269.9,67.6c0,2.5,1.7,3.6,3.5,3.6c1.3,0,2.2-0.2,2.9-0.5l0.3,1.3c-0.7,0.3-1.8,0.6-3.4,0.6
				c-3.2,0-5.1-2.1-5.1-5.2s1.8-5.6,4.8-5.6c3.4,0,4.3,3,4.3,4.9c0,0.4,0,0.7-0.1,0.9H269.9z M275.4,66.3c0-1.2-0.5-3-2.6-3
				c-1.9,0-2.7,1.7-2.9,3H275.4z"/>
			<path class="st0" d="M285.8,62.1v8.8h3.6v-8.8h1.8v8.8h3.6v-8.8h1.9v10.3H284V62.1H285.8z"/>
			<path class="st0" d="M299.7,62.2c0.7-0.1,2.1-0.2,3.3-0.2c1.7,0,4.6,0.3,4.6,2.6c0,1.3-1,2.1-2.2,2.3v0c1.5,0.2,2.6,1.1,2.6,2.6
				c0,2.7-3.4,3-5.4,3c-1.1,0-2.3-0.1-2.9-0.1V62.2z M301.5,71.2c0.5,0.1,0.9,0.1,1.5,0.1c1.3,0,3.1-0.3,3.1-1.8s-1.5-1.8-3.3-1.8
				h-1.4V71.2z M301.5,66.4h1.4c1.4,0,2.8-0.4,2.8-1.6c0-1-0.9-1.5-2.8-1.5c-0.6,0-1,0-1.4,0.1V66.4z"/>
			<path class="st0" d="M312.2,62.1v3.5c0.4-0.1,1-0.1,1.7-0.1c2.2,0,4.5,0.9,4.5,3.5c0,1.1-0.4,1.8-1.1,2.4c-1.1,1-2.8,1.2-4.2,1.2
				c-1,0-2-0.1-2.8-0.1V62.1H312.2z M312.2,71.1c0.4,0,0.8,0.1,1.3,0.1c1.4,0,3-0.6,3-2.2c0-1.7-1.5-2.2-2.9-2.2c-0.5,0-1,0-1.4,0.1
				V71.1z M321.5,62.1v10.3h-1.9V62.1H321.5z"/>
		</g>
		<g>
			<path class="st1" d="M111.8,20.4c2.5-0.4,5.5-0.7,8.8-0.7c5.9,0,10.1,1.4,12.9,4c2.8,2.6,4.5,6.3,4.5,11.5
				c0,5.2-1.6,9.5-4.6,12.4c-3,3-7.9,4.6-14.1,4.6c-2.9,0-5.4-0.1-7.5-0.4V20.4z M115.9,48.6c1,0.2,2.6,0.2,4.2,0.2
				c8.8,0,13.6-4.9,13.6-13.5c0-7.5-4.2-12.3-12.9-12.3c-2.1,0-3.7,0.2-4.8,0.4V48.6z"/>
			<path class="st1" d="M159.9,36.9h-12.4v11.5h13.8v3.5h-18V20h17.2v3.5h-13.1v10.1h12.4V36.9z"/>
			<path class="st1" d="M172.3,51.9L164.2,20h4.4l3.8,16.2c0.9,4,1.8,8,2.4,11h0.1c0.5-3.2,1.5-7,2.6-11.1l4.3-16.1h4.3l3.9,16.2
				c0.9,3.8,1.8,7.6,2.2,10.9h0.1c0.7-3.5,1.6-7.1,2.6-11l4.2-16.1h4.2l-9,31.9h-4.3l-4-16.6c-1-4.1-1.7-7.2-2.1-10.4h-0.1
				c-0.6,3.2-1.3,6.3-2.5,10.4l-4.5,16.6H172.3z"/>
			<path class="st1" d="M234,37.9c-0.2-4.5-0.5-9.8-0.5-13.8h-0.1c-1.1,3.7-2.4,7.7-4,12.1l-5.6,15.5h-3.1l-5.2-15.2
				c-1.5-4.5-2.8-8.6-3.7-12.4h-0.1c-0.1,4-0.3,9.3-0.6,14.1l-0.9,13.7h-3.9l2.2-31.9h5.3l5.4,15.4c1.3,3.9,2.4,7.4,3.2,10.8h0.1
				c0.8-3.2,1.9-6.7,3.4-10.8l5.7-15.4h5.3l2,31.9h-4L234,37.9z"/>
			<path class="st1" d="M249.9,41.9l-3.3,10h-4.3L253.2,20h5L269,51.9h-4.4l-3.4-10H249.9z M260.4,38.6l-3.1-9.2
				c-0.7-2.1-1.2-4-1.7-5.8h-0.1c-0.5,1.9-1,3.8-1.6,5.8l-3.1,9.2H260.4z"/>
			<path class="st1" d="M273.7,20.4c2.1-0.4,5.1-0.7,7.9-0.7c4.4,0,7.2,0.8,9.2,2.6c1.6,1.4,2.5,3.6,2.5,6.1c0,4.2-2.7,7-6,8.1v0.1
				c2.5,0.9,3.9,3.1,4.7,6.4c1,4.5,1.8,7.5,2.5,8.8h-4.3c-0.5-0.9-1.2-3.6-2.1-7.6c-0.9-4.4-2.7-6.1-6.4-6.2h-3.9v13.8h-4.1V20.4z
				 M277.8,34.9h4.2c4.4,0,7.2-2.4,7.2-6.1c0-4.1-3-5.9-7.3-6c-2,0-3.4,0.2-4.1,0.4V34.9z"/>
			<path class="st1" d="M299.2,20h4.1v15.4h0.1c0.9-1.2,1.7-2.4,2.5-3.4l9.8-12h5.1l-11.6,13.5l12.5,18.4h-4.9l-10.5-15.7l-3,3.5
				v12.2h-4.1V20z"/>
		</g>
		<g>
			<path class="st1" d="M334.9,16.7c0,3-2.4,5.4-5.5,5.4c-3.1,0-5.5-2.4-5.5-5.4c0-3,2.5-5.4,5.5-5.4
				C332.5,11.4,334.9,13.8,334.9,16.7z M325.2,16.7c0,2.4,1.8,4.3,4.2,4.3c2.4,0,4.1-1.9,4.1-4.3c0-2.4-1.7-4.3-4.1-4.3
				C327,12.5,325.2,14.4,325.2,16.7z M328.5,19.6h-1.2v-5.4c0.5-0.1,1.2-0.2,2.1-0.2c1,0,1.5,0.2,1.9,0.4c0.3,0.2,0.5,0.7,0.5,1.2
				c0,0.6-0.5,1-1.1,1.2v0.1c0.5,0.2,0.8,0.6,1,1.3c0.2,0.8,0.3,1.1,0.4,1.3h-1.3c-0.2-0.2-0.3-0.7-0.4-1.3
				c-0.1-0.6-0.4-0.9-1.1-0.9h-0.6V19.6z M328.5,16.5h0.6c0.7,0,1.2-0.2,1.2-0.8c0-0.5-0.4-0.8-1.1-0.8c-0.3,0-0.6,0-0.7,0.1V16.5z"
				/>
		</g>
	</g>
	<g>
		<path class="st2" d="M12.9,34.3c5.9,1.3,11.7,14.1,15.8,24.7l9.1-6.4c9.4-21,26-38.6,39.1-50.2l-1.6-2.1
			c-17,9.8-35.5,31.7-42.7,43.2c-2.5-4.4-6.1-12.8-11-14.4C16.6,30.1,14.2,32.4,12.9,34.3"/>
		<path class="st3" d="M76.4,53.7C70.5,52.4,64.7,39.6,60.6,29l-9.1,6.4c-9.5,21-26,38.6-39.1,50.2l1.6,2.1
			c17-9.8,35.5-31.7,42.7-43.2c2.5,4.4,6.1,12.8,11,14.4C72.7,57.9,75.1,55.6,76.4,53.7"/>
		<g>
			<path class="st1" d="M22.3,67.5H9c-4,0-7.2-3.2-7.2-7.2V20.2c0-4,3.2-7.2,7.2-7.2h39.8l1.7-1.7H9c-4.9,0-8.9,4-8.9,8.9v40.1
				c0,4.9,4,8.9,8.9,8.9h11.6L22.3,67.5z"/>
		</g>
		<g>
			<path class="st4" d="M67.2,21.2h13.3c4,0,7.2,3.2,7.2,7.2v40.1c0,4-3.2,7.2-7.2,7.2H40.7l-1.7,1.7h41.5c4.9,0,8.9-4,8.9-8.9V28.3
				c0-4.9-4-8.9-8.9-8.9H68.9L67.2,21.2z"/>
		</g>
	</g>
</g>
</svg>
