<?xml version="1.0" encoding="utf-8"?>
<!-- Generator: Adobe Illustrator 23.0.1, SVG Export Plug-In . SVG Version: 6.00 Build 0)  -->
<svg version="1.1" id="Слой_1" xmlns="http://www.w3.org/2000/svg" xmlns:xlink="http://www.w3.org/1999/xlink" x="0px" y="0px"
	 viewBox="0 0 52 27" style="enable-background:new 0 0 52 27;" xml:space="preserve">
<style type="text/css">
	.st0{fill:#FFFFFF;}
</style>
<g>
	<path class="st0" d="M29.6,8.7V4.4l0.1-0.2h0.1H30h3.2v0.5l0.5,3.6h1.8L36,4.7V3.3V0.6h-8.9l-0.2,2.3l-0.5,0.5h-0.9L25,2.9
		l-0.2-2.3h-9v2.7v1.4l0.5,3.6h1.8l0.5-3.6V4.2h3.5l0.2,0.1v0.1v4.3C29.6,8.7,29.6,8.7,29.6,8.7z"/>
	<g id="HATCH_4_">
		<polygon class="st0" points="17.5,14.1 21.6,10 21.6,9.6 21.6,5.9 19.8,5.9 19.8,9.6 18.5,10.9 16.1,10.9 14.8,8.7 14.8,5 
			14.8,3.2 14.8,0.5 12.9,0.5 12.9,12.3 12.9,22.9 0.2,22.9 0.2,26.5 16.6,26.5 16.6,15.1 		"/>
	</g>
	<g id="HATCH_3_">
		<polygon class="st0" points="37.2,5 37.2,8.7 35.9,10.9 33.5,10.9 32.2,9.6 32.2,5.9 30.4,5.9 30.4,9.6 30.4,10 34.5,14.1 
			35.4,15.1 35.4,26.5 51.8,26.5 51.8,22.9 39.1,22.9 39.1,12.3 39.1,0.5 37.2,0.5 		"/>
	</g>
</g>
</svg>
