<?xml version="1.0" encoding="utf-8"?>
<!-- Generator: Adobe Illustrator 23.0.1, SVG Export Plug-In . SVG Version: 6.00 Build 0)  -->
<svg version="1.1" id="Слой_1" xmlns="http://www.w3.org/2000/svg" xmlns:xlink="http://www.w3.org/1999/xlink" x="0px" y="0px"
	 viewBox="0 0 52 47" style="enable-background:new 0 0 52 47;" xml:space="preserve">
<style type="text/css">
	.st0{fill:#FFFFFF;}
</style>
<path id="path4685" class="st0" d="M49.55,31.79h-4.31V29.5c2.56,0.92,4.12,1.1,4.21,1.1c0.46,0,0.82-0.27,0.92-0.73
	c0-0.46-0.27-0.82-0.73-0.92c-0.09,0-5.95-0.73-12.64-6.23c-1.65-1.37-3.11-2.84-4.49-4.49l-0.09-0.09
	c-2.75-3.48-4.03-6.41-4.31-7.05V1.19c0-0.46-0.37-0.82-0.82-0.82H25c-0.46,0-0.82,0.37-0.82,0.82v9.44
	c-0.18,0.09-0.18,0.27-0.27,0.37c0,0-2.2,6.23-8.98,11.73c-6.6,5.5-12.46,6.23-12.55,6.23c-0.46,0.09-0.82,0.46-0.73,0.92
	c0.09,0.46,0.46,0.82,0.92,0.73c0.18-0.09,2.2-0.27,5.13-1.56v2.66H2.47c-0.46,0-0.82,0.37-0.82,0.82v2.75
	c0,0.46,0.37,0.82,0.82,0.82h1.37c2.93,0,5.22,2.38,5.22,5.22v4.49c0,0.46,0.37,0.82,0.82,0.82h2.56c0.46,0,0.82-0.37,0.82-0.82
	v-4.58c0-2.84,2.29-5.13,5.13-5.13h0.27c2.93,0,5.31,2.38,5.31,5.31v4.31c0,0.46,0.37,0.82,0.82,0.82h2.56
	c0.46,0,0.82-0.37,0.82-0.82v-4.67c0-2.75,2.2-4.95,4.95-4.95s4.95,2.2,4.95,4.95v4.67c0,0.46,0.37,0.82,0.82,0.82h2.56
	c0.46,0,0.82-0.37,0.73-0.64v-0.27v-4.49c0-2.75,2.2-4.95,4.95-4.95h2.38c0.46,0,0.82-0.37,0.82-0.82v-2.75
	C50.37,32.16,50.01,31.79,49.55,31.79z M9.34,31.7v-3.39c1.37-0.64,2.75-1.47,4.12-2.38v5.77H9.34z M15.11,31.7v-7.05
	c0.27-0.18,0.64-0.46,0.92-0.73c1.1-0.92,2.2-1.92,3.21-2.93V31.7L15.11,31.7z M20.88,31.7V19.33v-0.09
	c1.56-1.92,2.66-3.66,3.39-4.95v17.4H20.88z M25.82,31.7V2.02h0.64V31.7H25.82z M28.11,31.7V14.75c0.82,1.37,1.83,2.84,2.93,4.21
	V31.7H28.11z M32.69,31.7V20.89c1.1,1.1,2.2,2.11,3.39,3.11c0.27,0.27,0.64,0.46,0.92,0.73v6.96H32.69z M38.65,31.7v-5.77
	c1.65,1.1,3.3,2.11,5.04,2.84v2.93H38.65z M32.97,34.35c-3.66,0-6.6,2.93-6.6,6.6v3.94h-0.92v-3.48v-0.09
	c0-3.85-3.11-6.96-6.96-6.96h-0.27c-3.66,0-6.69,3.02-6.69,6.69v3.76h-0.92v-3.66c0-3.76-3.02-6.78-6.78-6.78H3.29v-1.1h45.53v1.1
	h-1.56c-3.66,0-6.6,3.02-6.6,6.6v3.94h-0.92h-0.09v-3.85c0-1.19-0.27-2.2-0.82-3.21C37.73,35.73,35.53,34.35,32.97,34.35z"/>
</svg>
