<?xml version="1.0" encoding="utf-8"?>
<!-- Generator: Adobe Illustrator 23.0.1, SVG Export Plug-In . SVG Version: 6.00 Build 0)  -->
<svg version="1.1" id="Слой_1" xmlns="http://www.w3.org/2000/svg" xmlns:xlink="http://www.w3.org/1999/xlink" x="0px" y="0px"
	 viewBox="0 0 52 47" style="enable-background:new 0 0 52 47;" xml:space="preserve">
<style type="text/css">
	.st0{fill:#FFFFFF;}
</style>
<g>
	<g>
		<path class="st0" d="M49.73,23.99L36.53,1.13c-0.61-1.05-2.06-1.45-3.12-0.84c-0.92,0.53-1.33,1.6-1.07,2.57L14.26,7.41
			c-1.81,0.46-3.4,1.55-4.46,3.09L2.36,21.25c-0.5,0.72-0.54,1.68-0.09,2.47l8.26,13.09l0.98,0.74c0.18-0.4,0.41-0.78,0.7-1.11
			l-0.61-0.45L3.43,23.02c-0.18-0.31-0.17-0.71,0.04-1.01l7.44-10.75c0.88-1.27,2.19-2.17,3.68-2.55l19.73-4.96l-0.58-1.01
			c-0.13-0.22-0.16-0.47-0.09-0.72c0.06-0.24,0.22-0.45,0.44-0.57c0.44-0.25,1.04-0.09,1.29,0.35l13.2,22.86
			c0.26,0.45,0.1,1.03-0.35,1.29c-0.44,0.26-1.04,0.09-1.3-0.35l-0.43-0.81L32.31,39.41c-1.07,1.11-2.51,1.79-4.05,1.91l-6,0.49
			c0.14,0.44,0.21,0.89,0.2,1.33l5.91-0.48c1.86-0.15,3.6-0.97,4.91-2.32l13.03-13.44c0.71,0.57,1.78,0.67,2.59,0.21
			C49.99,26.48,50.36,25.08,49.73,23.99z"/>
	</g>
	<path class="st0" d="M20.15,47h-6.72c-1.41,0-2.55-1.14-2.55-2.55V33.33c0-1.41,1.14-2.55,2.55-2.55h6.72
		c1.41,0,2.55,1.14,2.55,2.55v11.12C22.7,45.86,21.55,47,20.15,47z M13.43,32.12c-0.67,0-1.21,0.54-1.21,1.21v11.12
		c0,0.67,0.54,1.21,1.21,1.21h6.72c0.67,0,1.21-0.54,1.21-1.21V33.33c0-0.67-0.54-1.21-1.21-1.21H13.43z"/>
	<g>
		<path class="st0" d="M22.03,22.6v-3.62c0-1.59,0.21-2.9,0.62-3.93c0.41-1.03,0.95-1.85,1.61-2.46c0.66-0.61,1.4-1.03,2.21-1.28
			c0.81-0.24,1.62-0.36,2.42-0.36c0.83,0,1.62,0.05,2.37,0.16c0.75,0.1,1.42,0.2,1.99,0.29c0.28,0.03,0.42,0.14,0.41,0.33v1.32
			c0,0.08-0.02,0.15-0.05,0.2c-0.03,0.05-0.12,0.08-0.25,0.08h-0.08c-0.24-0.02-0.54-0.04-0.88-0.06c-0.34-0.03-0.7-0.05-1.09-0.08
			s-0.79-0.05-1.21-0.06c-0.42-0.02-0.81-0.03-1.19-0.03c-0.64,0-1.24,0.1-1.78,0.3c-0.55,0.2-1.02,0.53-1.43,0.99
			c-0.41,0.46-0.73,1.07-0.96,1.82c-0.24,0.75-0.35,1.68-0.35,2.79v3.62c0,1.09,0.12,2.01,0.35,2.77c0.24,0.75,0.56,1.36,0.96,1.82
			c0.41,0.46,0.88,0.79,1.43,1c0.55,0.21,1.14,0.31,1.78,0.31c0.36,0,0.75-0.01,1.15-0.03c0.41-0.02,0.8-0.03,1.19-0.05
			c0.39-0.02,0.75-0.04,1.08-0.06c0.33-0.03,0.62-0.05,0.86-0.06h0.1c0.28,0,0.41,0.14,0.41,0.42v1.07c0,0.15-0.05,0.27-0.15,0.35
			c-0.1,0.08-0.22,0.14-0.36,0.17c-0.28,0.05-0.56,0.1-0.84,0.14c-0.28,0.04-0.58,0.08-0.91,0.1c-0.33,0.03-0.7,0.05-1.12,0.06
			c-0.41,0.02-0.9,0.03-1.45,0.03c-0.8,0-1.6-0.12-2.42-0.36c-0.82-0.24-1.55-0.67-2.21-1.28c-0.66-0.61-1.2-1.44-1.61-2.47
			C22.23,25.47,22.03,24.17,22.03,22.6z"/>
	</g>
</g>
</svg>
