<?xml version="1.0" encoding="utf-8"?>
<!-- Generator: Adobe Illustrator 23.0.1, SVG Export Plug-In . SVG Version: 6.00 Build 0)  -->
<svg version="1.1" id="Слой_1" xmlns="http://www.w3.org/2000/svg" xmlns:xlink="http://www.w3.org/1999/xlink" x="0px" y="0px"
	 viewBox="0 0 52 56" style="enable-background:new 0 0 52 56;" xml:space="preserve">
<style type="text/css">
	.st0{fill:#FFFFFF;}
</style>
<g>
	<path class="st0" d="M47.09,55.12H4.63c-1.05,0-2.22-0.58-2.92-1.28c-0.7-0.82-0.93-2.1-0.82-3.15l5.6-30.92
		c0.35-1.75,1.87-3.03,3.73-3.03h6.88c-0.93-1.63-1.52-3.5-1.52-5.48C15.48,5.54,20.26,0.88,25.98,0.88s10.5,4.67,10.5,10.5
		c0,1.98-0.58,3.85-1.52,5.48h6.88c1.87,0,3.38,1.28,3.73,3.03l5.48,30.68c0.23,1.05-0.12,2.22-0.82,3.03
		C49.31,54.54,48.26,55.12,47.09,55.12z M10.11,19.08c-0.7,0-1.28,0.58-1.4,1.17l-5.48,30.8c-0.12,0.47,0,0.82,0.35,1.17
		s0.7,0.58,1.05,0.58h42.47c0.47,0,0.82-0.23,1.05-0.58c0.35-0.35,0.47-0.82,0.35-1.17l-5.48-30.8c-0.12-0.7-0.82-1.17-1.4-1.17
		H29.59l1.98-1.98c1.63-1.52,2.45-3.62,2.45-5.83c0-4.55-3.73-8.17-8.17-8.17c-4.55,0-8.17,3.73-8.17,8.17
		c0,2.22,0.82,4.2,2.45,5.83l1.98,1.98H10.11z M25.86,16.51c-2.92,0-5.37-2.33-5.37-5.37s2.33-5.37,5.37-5.37
		c2.92,0,5.37,2.33,5.37,5.37S28.78,16.51,25.86,16.51z M25.86,8.34c-1.63,0-3.03,1.28-3.03,3.03s1.28,3.03,3.03,3.03
		c1.63,0,3.03-1.28,3.03-3.03C28.89,9.63,27.49,8.34,25.86,8.34z"/>
	<rect x="28.54" y="47.07" class="st0" width="15.52" height="2.33"/>
	<rect x="20.5" y="47.07" class="st0" width="5.48" height="2.33"/>
</g>
</svg>
