<?xml version="1.0" encoding="utf-8"?>
<!-- Generator: Adobe Illustrator 23.0.1, SVG Export Plug-In . SVG Version: 6.00 Build 0)  -->
<svg version="1.1" id="Слой_1" xmlns="http://www.w3.org/2000/svg" xmlns:xlink="http://www.w3.org/1999/xlink" x="0px" y="0px"
	 viewBox="0 0 52 56" style="enable-background:new 0 0 52 56;" xml:space="preserve">
<style type="text/css">
	.st0{fill:#FFFFFF;}
</style>
<g>
	<path class="st0" d="M26.33,55.5c-11.26,0-20.41-9.16-20.41-20.41C5.91,24.71,22.06,4,23.9,1.68c0.58-0.75,1.47-1.18,2.42-1.18
		c0.95,0,1.83,0.43,2.42,1.18c3,3.8,17.98,23.29,17.98,33.41c0,5.44-2.12,10.57-5.98,14.43C36.89,53.37,31.77,55.5,26.33,55.5z
		 M26.33,2.55c-0.32,0-0.62,0.14-0.81,0.39C19,11.19,7.97,27.23,7.97,35.09c0,10.12,8.24,18.36,18.36,18.36
		c4.89,0,9.5-1.91,12.97-5.38c3.47-3.47,5.38-8.08,5.38-12.97c0-7.83-11.03-23.89-17.54-32.14C26.94,2.7,26.64,2.55,26.33,2.55z"/>
	<path class="st0" d="M37.46,35.09c0,0,0.08,0.28,0.17,0.76c0.02,0.12,0.05,0.25,0.07,0.4c0.01,0.15,0.02,0.31,0.02,0.49
		c0.02,0.35,0.03,0.77-0.03,1.19c-0.02,0.22-0.05,0.45-0.08,0.68c-0.05,0.23-0.11,0.47-0.17,0.71c-0.1,0.5-0.33,0.98-0.53,1.5
		c-0.26,0.49-0.5,1.02-0.86,1.48c-0.31,0.5-0.73,0.93-1.13,1.37c-0.45,0.4-0.87,0.81-1.37,1.13c-0.46,0.36-0.99,0.6-1.48,0.86
		c-0.52,0.2-1,0.43-1.5,0.53c-0.24,0.06-0.48,0.11-0.71,0.17c-0.24,0.03-0.46,0.05-0.68,0.08c-0.43,0.07-0.83,0.05-1.18,0.03
		c-0.18-0.01-0.34-0.01-0.49-0.02c-0.15-0.03-0.29-0.05-0.41-0.07c-0.49-0.09-0.76-0.17-0.76-0.17s0.28-0.1,0.74-0.24
		c0.23-0.06,0.51-0.16,0.81-0.28c0.31-0.11,0.65-0.23,1.01-0.4c0.18-0.08,0.36-0.16,0.56-0.24c0.18-0.1,0.38-0.2,0.57-0.3
		c0.4-0.18,0.77-0.46,1.19-0.68c0.38-0.29,0.79-0.54,1.16-0.86c0.39-0.29,0.74-0.65,1.11-0.98c0.33-0.37,0.69-0.72,0.98-1.11
		c0.33-0.37,0.57-0.78,0.86-1.16c0.22-0.41,0.51-0.78,0.69-1.18c0.1-0.2,0.2-0.39,0.3-0.57c0.08-0.19,0.17-0.38,0.24-0.56
		c0.17-0.36,0.29-0.69,0.4-1c0.06-0.15,0.11-0.3,0.16-0.43c0.04-0.14,0.08-0.27,0.11-0.39C37.36,35.36,37.46,35.09,37.46,35.09z"/>
</g>
</svg>
