<?xml version="1.0" encoding="utf-8"?>
<!-- Generator: Adobe Illustrator 23.0.1, SVG Export Plug-In . SVG Version: 6.00 Build 0)  -->
<svg version="1.1" id="Слой_1" xmlns="http://www.w3.org/2000/svg" xmlns:xlink="http://www.w3.org/1999/xlink" x="0px" y="0px"
	 viewBox="0 0 52 47" style="enable-background:new 0 0 52 47;" xml:space="preserve">
<style type="text/css">
	.st0{fill:#FFFFFF;}
</style>
<path class="st0" d="M1.27,46.08c-0.46,0-0.93-0.35-0.93-0.93s0.35-0.93,0.93-0.93h2.2V20.72c0-0.23,0.23-0.58,0.35-0.69
	c0.12,0,3.94-2.66,9.15-2.66c1.85,0,3.82,0.35,5.56,1.04l1.39,0.58V5.9c0-0.23,0.23-0.58,0.35-0.69c0.81-0.46,6.72-4.28,14.59-4.28
	c4.75,0,9.26,1.39,13.32,4.17c0.23,0.23,0.35,0.46,0.35,0.69v38.45h2.2c0.46,0,0.93,0.35,0.93,0.93s-0.35,0.93-0.93,0.93H1.27z
	 M38.45,27.09c0.46,0,0.93,0.35,0.93,0.93v16.21h7.53V6.36l-0.46-0.35c-3.47-2.2-7.41-3.24-11.47-3.24
	c-5.79,0-10.65,2.32-12.39,3.36L22,6.36v37.99h7.53V28.13c0-0.46,0.35-0.93,0.93-0.93h7.99V27.09z M31.15,44.23h6.37V28.94h-6.37
	V44.23z M13.09,19.1c-3.01,0-5.56,1.04-7.18,1.85l-0.58,0.23v23.16h14.82V21.3l-0.58-0.23C17.6,19.68,15.29,19.1,13.09,19.1z"/>
</svg>
