<?xml version="1.0" encoding="utf-8"?>
<!-- Generator: Adobe Illustrator 23.0.1, SVG Export Plug-In . SVG Version: 6.00 Build 0)  -->
<svg version="1.1" id="Слой_1" xmlns="http://www.w3.org/2000/svg" xmlns:xlink="http://www.w3.org/1999/xlink" x="0px" y="0px"
	 viewBox="0 0 50 46" style="enable-background:new 0 0 50 46;" xml:space="preserve">
<style type="text/css">
	.st0{fill-rule:evenodd;clip-rule:evenodd;fill:#FFFFFF;}
</style>
<g>
	<path class="st0" d="M29.47,25.9l0.12,12.67l-8.53-0.01c0.18-14.59-1.14-12.82,2.96-12.78C25.8,25.79,27.74,25.6,29.47,25.9
		L29.47,25.9z M18.91,38.57h-8.75l-0.01-18.54c-0.03-3.51,0.05-2.97,5.29-7.21c1.22-0.99,2.06-2.06,3.21-3.13l6.21-6.44l7.44,7.41
		c1.66,1.81,7.85,6.18,8.01,6.89l0,21.02l-8.52,0c0.31-16.24,0.63-14.98-6.37-14.98c-4.62,0-6.54-0.83-6.51,4.17
		C18.91,31.35,18.85,34.97,18.91,38.57L18.91,38.57z M24.85,0.41C24.71,0.45,6.46,18.08,0.83,21.14c-1.03,0.92-0.77,2.21,0.5,2.12
		c0.8-0.06,5.56-3.61,6.62-4.26C8.3,23.8,7.29,37.33,8.2,40.56c2.19,0.74,24.67,0.32,30.45,0.34c2.41,0.01,2.79,0.35,3.54-0.57
		c0.88-1.04,0.28-18.45,0.35-21.38c1.21,0.56,5.59,4.27,6.76,3.22c0.26-0.24,0.75-0.02,0.37-1.22c-0.23-0.73-9.1-5.42-12.75-9.2
		L37,4.86c0-1.52-0.25-1.98-1.87-1.59c-0.61,1.31-0.36,4.85-0.34,6.67c-1.95-1.5-3.54-2.96-5.12-4.64
		C28.59,4.14,26.34,0.86,24.85,0.41L24.85,0.41z"/>
	<path class="st0" d="M7.19,45.17c1.7,0.72,27.7,0.28,33.66,0.34c2.23,0.02,3.28,0.52,3.07-1.83c-1.46-0.66-35.32-0.66-36.8,0
		L7.19,45.17L7.19,45.17z"/>
	<path class="st0" d="M19.69,14.88c0.69-0.56,4.85-3.7,3.5-5.05c-1.18-1.17-1.99,0.81-4.96,3.32c-0.8,0.68-1.48,1.35-2.37,2.02
		C11.69,18.29,14.8,18.89,19.69,14.88L19.69,14.88z"/>
</g>
</svg>
