<?xml version="1.0" encoding="utf-8"?>
<!-- Generator: Adobe Illustrator 23.0.1, SVG Export Plug-In . SVG Version: 6.00 Build 0)  -->
<svg version="1.1" id="Слой_1" xmlns="http://www.w3.org/2000/svg" xmlns:xlink="http://www.w3.org/1999/xlink" x="0px" y="0px"
	 viewBox="0 0 50 44" style="enable-background:new 0 0 50 44;" xml:space="preserve">
<style type="text/css">
	.st0{fill:#FFFFFF;}
</style>
<path class="st0" d="M49.18,18.63c0.4,0,0.69-0.3,0.69-0.69V9.71c0-0.4-0.3-0.69-0.69-0.69h-7.33V1.59c0-0.4-0.3-0.69-0.69-0.69
	H8.95c-0.4,0-0.69,0.3-0.69,0.69v7.43H0.92c-0.4,0-0.69,0.3-0.69,0.69v8.23c0,0.4,0.3,0.69,0.69,0.69h7.23v6.74H0.82
	c-0.4,0-0.69,0.3-0.69,0.69v8.23c0,0.4,0.3,0.69,0.69,0.69h7.33v7.43c0,0.4,0.3,0.69,0.69,0.69h32.21c0.4,0,0.69-0.3,0.69-0.69
	v-7.43h7.33c0.4,0,0.69-0.3,0.69-0.69v-8.23c0-0.4-0.3-0.69-0.69-0.69h-7.23v-6.74L49.18,18.63z M48.39,17.14H33.72v-6.74h14.67
	V17.14z M17.67,17.14v-6.74h14.67v6.74L17.67,17.14z M32.33,33.59H17.67v-6.74h14.67V33.59z M25.69,2.28h14.67v6.74H25.69V2.28z
	 M9.64,2.28h14.67v6.74H9.64V2.28z M1.61,10.41h14.67v6.74H1.61V10.41z M9.64,18.63h14.67v6.74H9.64V18.63z M1.61,26.76h14.67v6.74
	H1.61V26.76z M24.31,41.72H9.64v-6.74h14.67V41.72z M40.36,41.72H25.69v-6.74h14.67V41.72z M48.39,33.59H33.72v-6.74h14.67V33.59z
	 M40.36,25.37H25.69v-6.74h14.67V25.37z"/>
</svg>
